<?xml version="1.0" encoding="UTF-8" standalone="no"?>
<!DOCTYPE svg PUBLIC "-//W3C//DTD SVG 1.1//EN"
 "http://www.w3.org/Graphics/SVG/1.1/DTD/svg11.dtd">
<!-- Generated by graphviz version 2.43.0 (0)
 -->
<!-- Title: G Pages: 1 -->
<svg width="214pt" height="190pt"
 viewBox="0.00 0.00 214.00 190.00" xmlns="http://www.w3.org/2000/svg" xmlns:xlink="http://www.w3.org/1999/xlink">
<g id="graph0" class="graph" transform="scale(1 1) rotate(0) translate(4 186)">
<title>G</title>
<g id="clust1" class="cluster">
<title>cluster_0</title>
<polygon fill="transparent" stroke="black" points="8,-101 8,-174 99,-174 99,-101 8,-101"/>
<text text-anchor="middle" x="53.5" y="-160.4" font-family="'Lato,proxima-nova,Helvetica Neue,Arial,sans-serif'" font-size="12.00">My module v1</text>
</g>
<g id="clust2" class="cluster">
<title>cluster_2</title>
<polygon fill="transparent" stroke="black" points="107,-101 107,-174 198,-174 198,-101 107,-101"/>
<text text-anchor="middle" x="152.5" y="-160.4" font-family="'Lato,proxima-nova,Helvetica Neue,Arial,sans-serif'" font-size="12.00">My module v2</text>
</g>
<g id="clust3" class="cluster">
<title>cluster_1</title>
<polygon fill="transparent" stroke="black" stroke-dasharray="1,5" points="28,-8 28,-81 170,-81 170,-8 28,-8"/>
<text text-anchor="middle" x="99" y="-15.4" font-family="'Lato,proxima-nova,Helvetica Neue,Arial,sans-serif'" font-size="12.00">Instances</text>
</g>
<!-- escrow -->
<g id="node1" class="node">
<title>escrow</title>
<polygon fill="none" stroke="black" points="85,-145 35,-145 35,-109 91,-109 91,-139 85,-145"/>
<polyline fill="none" stroke="black" points="85,-145 85,-139 "/>
<polyline fill="none" stroke="black" points="91,-139 85,-139 "/>
<text text-anchor="middle" x="63" y="-123.9" font-family="'Lato,proxima-nova,Helvetica Neue,Arial,sans-serif'" font-size="12.00">Escrow</text>
</g>
<!-- escrow2 -->
<g id="node2" class="node">
<title>escrow2</title>
<polygon fill="none" stroke="black" points="165,-145 115,-145 115,-109 171,-109 171,-139 165,-145"/>
<polyline fill="none" stroke="black" points="165,-145 165,-139 "/>
<polyline fill="none" stroke="black" points="171,-139 165,-139 "/>
<text text-anchor="middle" x="143" y="-123.9" font-family="'Lato,proxima-nova,Helvetica Neue,Arial,sans-serif'" font-size="12.00">Escrow</text>
</g>
<!-- House -->
<g id="node3" class="node">
<title>House</title>
<path fill="none" stroke="black" d="M78,-73C78,-73 48,-73 48,-73 42,-73 36,-67 36,-61 36,-61 36,-49 36,-49 36,-43 42,-37 48,-37 48,-37 78,-37 78,-37 84,-37 90,-43 90,-49 90,-49 90,-61 90,-61 90,-67 84,-73 78,-73"/>
<text text-anchor="middle" x="63" y="-51.9" font-family="'Lato,proxima-nova,Helvetica Neue,Arial,sans-serif'" font-size="12.00">House</text>
</g>
<!-- House&#45;&gt;escrow -->
<g id="edge1" class="edge">
<title>House:n&#45;&gt;escrow</title>
<path fill="none" stroke="black" d="M63,-74C63,-81.94 63,-90.57 63,-98.47"/>
<polygon fill="black" stroke="black" points="59.5,-98.67 63,-108.67 66.5,-98.67 59.5,-98.67"/>
</g>
<!-- Car -->
<g id="node4" class="node">
<title>Car</title>
<path fill="none" stroke="black" d="M150,-73C150,-73 120,-73 120,-73 114,-73 108,-67 108,-61 108,-61 108,-49 108,-49 108,-43 114,-37 120,-37 120,-37 150,-37 150,-37 156,-37 162,-43 162,-49 162,-49 162,-61 162,-61 162,-67 156,-73 150,-73"/>
<text text-anchor="middle" x="135" y="-51.9" font-family="'Lato,proxima-nova,Helvetica Neue,Arial,sans-serif'" font-size="12.00">Car</text>
</g>
<!-- Car&#45;&gt;escrow -->
<g id="edge2" class="edge">
<title>Car:n&#45;&gt;escrow</title>
<path fill="none" stroke="black" stroke-dasharray="5,2" d="M135,-74C135,-76.56 115.66,-90.43 97.03,-103.21"/>
<polygon fill="none" stroke="black" points="94.88,-100.43 88.59,-108.95 98.82,-106.22 94.88,-100.43"/>
</g>
<!-- Car&#45;&gt;escrow2 -->
<g id="edge3" class="edge">
<title>Car:n&#45;&gt;escrow2</title>
<path fill="none" stroke="black" stroke-width="2" d="M135,-74C135,-82.13 135.97,-90.89 137.23,-98.86"/>
<polygon fill="black" stroke="black" stroke-width="2" points="133.79,-99.54 139,-108.77 140.68,-98.31 133.79,-99.54"/>
</g>
</g>
</svg>
