<?xml version="1.0" encoding="UTF-8" standalone="no"?>
<!DOCTYPE svg PUBLIC "-//W3C//DTD SVG 1.1//EN"
 "http://www.w3.org/Graphics/SVG/1.1/DTD/svg11.dtd">
<!-- Generated by graphviz version 2.43.0 (0)
 -->
<!-- Title: G Pages: 1 -->
<svg width="206pt" height="97pt"
 viewBox="0.00 0.00 206.00 97.00" xmlns="http://www.w3.org/2000/svg" xmlns:xlink="http://www.w3.org/1999/xlink">
<g id="graph0" class="graph" transform="scale(1 1) rotate(0) translate(4 93)">
<title>G</title>
<g id="clust1" class="cluster">
<title>cluster_0</title>
<polygon fill="transparent" stroke="black" points="8,-8 8,-81 190,-81 190,-8 8,-8"/>
<text text-anchor="middle" x="99" y="-67.4" font-family="'Lato,proxima-nova,Helvetica Neue,Arial,sans-serif'" font-size="12.00">Module</text>
</g>
<!-- Crowdfunding -->
<g id="node1" class="node">
<title>Crowdfunding</title>
<polygon fill="none" stroke="black" points="176,-52 90,-52 90,-16 182,-16 182,-46 176,-52"/>
<polyline fill="none" stroke="black" points="176,-52 176,-46 "/>
<polyline fill="none" stroke="black" points="182,-46 176,-46 "/>
<text text-anchor="middle" x="136" y="-30.9" font-family="'Lato,proxima-nova,Helvetica Neue,Arial,sans-serif'" font-size="12.00">Crowdfunding</text>
</g>
<!-- Escrow -->
<g id="node2" class="node">
<title>Escrow</title>
<polygon fill="none" stroke="black" points="66,-52 16,-52 16,-16 72,-16 72,-46 66,-52"/>
<polyline fill="none" stroke="black" points="66,-52 66,-46 "/>
<polyline fill="none" stroke="black" points="72,-46 66,-46 "/>
<text text-anchor="middle" x="44" y="-30.9" font-family="'Lato,proxima-nova,Helvetica Neue,Arial,sans-serif'" font-size="12.00">Escrow</text>
</g>
</g>
</svg>
