<?xml version="1.0" encoding="UTF-8" standalone="no"?>
<!DOCTYPE svg PUBLIC "-//W3C//DTD SVG 1.1//EN"
 "http://www.w3.org/Graphics/SVG/1.1/DTD/svg11.dtd">
<!-- Generated by graphviz version 2.43.0 (0)
 -->
<!-- Title: G Pages: 1 -->
<svg width="217pt" height="97pt"
 viewBox="0.00 0.00 217.00 97.00" xmlns="http://www.w3.org/2000/svg" xmlns:xlink="http://www.w3.org/1999/xlink">
<g id="graph0" class="graph" transform="scale(1 1) rotate(0) translate(4 93)">
<title>G</title>
<g id="clust1" class="cluster">
<title>cluster_0</title>
<polygon fill="transparent" stroke="black" points="8,-8 8,-81 201,-81 201,-8 8,-8"/>
<text text-anchor="middle" x="104.5" y="-67.4" font-family="'Lato,proxima-nova,Helvetica Neue,Arial,sans-serif'" font-size="12.00">Module</text>
</g>
<!-- Crowdfunding -->
<g id="node1" class="node">
<title>Crowdfunding</title>
<polygon fill="none" stroke="black" points="186.5,-52 93.5,-52 93.5,-16 192.5,-16 192.5,-46 186.5,-52"/>
<polyline fill="none" stroke="black" points="186.5,-52 186.5,-46 "/>
<polyline fill="none" stroke="black" points="192.5,-46 186.5,-46 "/>
<text text-anchor="middle" x="143" y="-30.9" font-family="'Lato,proxima-nova,Helvetica Neue,Arial,sans-serif'" font-size="12.00">Crowdfunding</text>
</g>
<!-- Escrow -->
<g id="node2" class="node">
<title>Escrow</title>
<polygon fill="none" stroke="black" points="69.5,-52 16.5,-52 16.5,-16 75.5,-16 75.5,-46 69.5,-52"/>
<polyline fill="none" stroke="black" points="69.5,-52 69.5,-46 "/>
<polyline fill="none" stroke="black" points="75.5,-46 69.5,-46 "/>
<text text-anchor="middle" x="46" y="-30.9" font-family="'Lato,proxima-nova,Helvetica Neue,Arial,sans-serif'" font-size="12.00">Escrow</text>
</g>
</g>
</svg>
