<?xml version="1.0" encoding="UTF-8" standalone="no"?>
<!DOCTYPE svg PUBLIC "-//W3C//DTD SVG 1.1//EN"
 "http://www.w3.org/Graphics/SVG/1.1/DTD/svg11.dtd">
<!-- Generated by graphviz version 2.43.0 (0)
 -->
<!-- Title: G Pages: 1 -->
<svg width="337pt" height="190pt"
 viewBox="0.00 0.00 337.00 190.00" xmlns="http://www.w3.org/2000/svg" xmlns:xlink="http://www.w3.org/1999/xlink">
<g id="graph0" class="graph" transform="scale(1 1) rotate(0) translate(4 186)">
<title>G</title>
<g id="clust1" class="cluster">
<title>cluster_0</title>
<polygon fill="transparent" stroke="black" points="75,-101 75,-174 257,-174 257,-101 75,-101"/>
<text text-anchor="middle" x="166" y="-160.4" font-family="'Lato,proxima-nova,Helvetica Neue,Arial,sans-serif'" font-size="12.00">Module</text>
</g>
<g id="clust2" class="cluster">
<title>cluster_1</title>
<polygon fill="transparent" stroke="black" stroke-dasharray="1,5" points="8,-8 8,-81 321,-81 321,-8 8,-8"/>
<text text-anchor="middle" x="164.5" y="-15.4" font-family="'Lato,proxima-nova,Helvetica Neue,Arial,sans-serif'" font-size="12.00">Instances</text>
</g>
<!-- Crowdfunding -->
<g id="node1" class="node">
<title>Crowdfunding</title>
<polygon fill="none" stroke="black" points="243,-145 157,-145 157,-109 249,-109 249,-139 243,-145"/>
<polyline fill="none" stroke="black" points="243,-145 243,-139 "/>
<polyline fill="none" stroke="black" points="249,-139 243,-139 "/>
<text text-anchor="middle" x="203" y="-123.9" font-family="'Lato,proxima-nova,Helvetica Neue,Arial,sans-serif'" font-size="12.00">Crowdfunding</text>
</g>
<!-- Escrow -->
<g id="node2" class="node">
<title>Escrow</title>
<polygon fill="none" stroke="black" points="133,-145 83,-145 83,-109 139,-109 139,-139 133,-145"/>
<polyline fill="none" stroke="black" points="133,-145 133,-139 "/>
<polyline fill="none" stroke="black" points="139,-139 133,-139 "/>
<text text-anchor="middle" x="111" y="-123.9" font-family="'Lato,proxima-nova,Helvetica Neue,Arial,sans-serif'" font-size="12.00">Escrow</text>
</g>
<!-- House -->
<g id="node3" class="node">
<title>House</title>
<path fill="none" stroke="black" d="M130,-73C130,-73 100,-73 100,-73 94,-73 88,-67 88,-61 88,-61 88,-49 88,-49 88,-43 94,-37 100,-37 100,-37 130,-37 130,-37 136,-37 142,-43 142,-49 142,-49 142,-61 142,-61 142,-67 136,-73 130,-73"/>
<text text-anchor="middle" x="115" y="-51.9" font-family="'Lato,proxima-nova,Helvetica Neue,Arial,sans-serif'" font-size="12.00">House</text>
</g>
<!-- House&#45;&gt;Escrow -->
<g id="edge1" class="edge">
<title>House:n&#45;&gt;Escrow</title>
<path fill="none" stroke="black" d="M115,-74C115,-81.97 114.53,-90.6 113.91,-98.5"/>
<polygon fill="black" stroke="black" points="110.4,-98.42 113,-108.69 117.37,-99.04 110.4,-98.42"/>
</g>
<!-- Car -->
<g id="node4" class="node">
<title>Car</title>
<path fill="none" stroke="black" d="M58,-73C58,-73 28,-73 28,-73 22,-73 16,-67 16,-61 16,-61 16,-49 16,-49 16,-43 22,-37 28,-37 28,-37 58,-37 58,-37 64,-37 70,-43 70,-49 70,-49 70,-61 70,-61 70,-67 64,-73 58,-73"/>
<text text-anchor="middle" x="43" y="-51.9" font-family="'Lato,proxima-nova,Helvetica Neue,Arial,sans-serif'" font-size="12.00">Car</text>
</g>
<!-- Car&#45;&gt;Escrow -->
<g id="edge2" class="edge">
<title>Car:n&#45;&gt;Escrow</title>
<path fill="none" stroke="black" d="M43,-74C43,-91.77 57.83,-104.28 73.63,-112.57"/>
<polygon fill="black" stroke="black" points="72.41,-115.86 82.95,-116.97 75.4,-109.53 72.41,-115.86"/>
</g>
<!-- Gadget -->
<g id="node5" class="node">
<title>Gadget</title>
<path fill="none" stroke="black" d="M301,-73C301,-73 269,-73 269,-73 263,-73 257,-67 257,-61 257,-61 257,-49 257,-49 257,-43 263,-37 269,-37 269,-37 301,-37 301,-37 307,-37 313,-43 313,-49 313,-49 313,-61 313,-61 313,-67 307,-73 301,-73"/>
<text text-anchor="middle" x="285" y="-51.9" font-family="'Lato,proxima-nova,Helvetica Neue,Arial,sans-serif'" font-size="12.00">Gadget</text>
</g>
<!-- Gadget&#45;&gt;Crowdfunding -->
<g id="edge3" class="edge">
<title>Gadget:n&#45;&gt;Crowdfunding</title>
<path fill="none" stroke="black" d="M285,-74C285,-90.33 273.25,-101.75 258.65,-109.64"/>
<polygon fill="black" stroke="black" points="256.8,-106.64 249.27,-114.1 259.81,-112.96 256.8,-106.64"/>
</g>
<!-- Boardgame -->
<g id="node6" class="node">
<title>Boardgame</title>
<path fill="none" stroke="black" d="M227.5,-73C227.5,-73 172.5,-73 172.5,-73 166.5,-73 160.5,-67 160.5,-61 160.5,-61 160.5,-49 160.5,-49 160.5,-43 166.5,-37 172.5,-37 172.5,-37 227.5,-37 227.5,-37 233.5,-37 239.5,-43 239.5,-49 239.5,-49 239.5,-61 239.5,-61 239.5,-67 233.5,-73 227.5,-73"/>
<text text-anchor="middle" x="200" y="-51.9" font-family="'Lato,proxima-nova,Helvetica Neue,Arial,sans-serif'" font-size="12.00">Boardgame</text>
</g>
<!-- Boardgame&#45;&gt;Crowdfunding -->
<g id="edge4" class="edge">
<title>Boardgame:n&#45;&gt;Crowdfunding</title>
<path fill="none" stroke="black" d="M200,-74C200,-81.96 200.35,-90.59 200.82,-98.49"/>
<polygon fill="black" stroke="black" points="197.34,-98.94 201.5,-108.68 204.33,-98.47 197.34,-98.94"/>
</g>
</g>
</svg>
