<?xml version="1.0" encoding="UTF-8" standalone="no"?>
<!DOCTYPE svg PUBLIC "-//W3C//DTD SVG 1.1//EN"
 "http://www.w3.org/Graphics/SVG/1.1/DTD/svg11.dtd">
<!-- Generated by graphviz version 2.40.1 (20161225.0304)
 -->
<!-- Title: G Pages: 1 -->
<svg width="382pt" height="188pt"
 viewBox="0.00 0.00 382.28 188.00" xmlns="http://www.w3.org/2000/svg" xmlns:xlink="http://www.w3.org/1999/xlink">
<g id="graph0" class="graph" transform="scale(1 1) rotate(0) translate(4 184)">
<title>G</title>
<!-- or1 -->
<g id="node1" class="node">
<title>or1</title>
<ellipse fill="none" stroke="transparent" cx="224.9484" cy="-162" rx="27" ry="18"/>
<text text-anchor="middle" x="224.9484" y="-158.9" font-family="'Lato,proxima-nova,Helvetica Neue,Arial,sans-serif'" font-size="12.00" fill="#000000">Or</text>
</g>
<!-- and1 -->
<g id="node2" class="node">
<title>and1</title>
<ellipse fill="none" stroke="transparent" cx="160.9484" cy="-90" rx="27" ry="18"/>
<text text-anchor="middle" x="160.9484" y="-86.9" font-family="'Lato,proxima-nova,Helvetica Neue,Arial,sans-serif'" font-size="12.00" fill="#000000">And</text>
</g>
<!-- or1&#45;&gt;and1 -->
<g id="edge1" class="edge">
<title>or1&#45;&gt;and1</title>
<path fill="none" stroke="#000000" d="M211.0613,-146.3771C202.4231,-136.659 191.1591,-123.987 181.4987,-113.1191"/>
<polygon fill="#000000" stroke="#000000" points="184.0679,-110.7413 174.8083,-105.5924 178.8361,-115.3918 184.0679,-110.7413"/>
</g>
<!-- transC -->
<g id="node5" class="node">
<title>transC</title>
<ellipse fill="none" stroke="transparent" cx="289.9484" cy="-90" rx="84.1712" ry="18"/>
<text text-anchor="middle" x="289.9484" y="-86.9" font-family="'Lato,proxima-nova,Helvetica Neue,Arial,sans-serif'" font-size="12.00" fill="#000000">Transfer z to Charlie</text>
</g>
<!-- or1&#45;&gt;transC -->
<g id="edge4" class="edge">
<title>or1&#45;&gt;transC</title>
<path fill="none" stroke="#000000" d="M239.0524,-146.3771C247.2049,-137.3466 257.6601,-125.7654 266.9715,-115.4514"/>
<polygon fill="#000000" stroke="#000000" points="269.7087,-117.6424 273.8118,-107.8744 264.5128,-112.9517 269.7087,-117.6424"/>
</g>
<!-- transA -->
<g id="node3" class="node">
<title>transA</title>
<ellipse fill="none" stroke="transparent" cx="76.9484" cy="-18" rx="76.8968" ry="18"/>
<text text-anchor="middle" x="76.9484" y="-14.9" font-family="'Lato,proxima-nova,Helvetica Neue,Arial,sans-serif'" font-size="12.00" fill="#000000">Transfer x to Alice</text>
</g>
<!-- and1&#45;&gt;transA -->
<g id="edge2" class="edge">
<title>and1&#45;&gt;transA</title>
<path fill="none" stroke="#000000" d="M144.3527,-75.7751C133.1869,-66.2044 118.184,-53.3448 105.1673,-42.1876"/>
<polygon fill="#000000" stroke="#000000" points="107.2416,-39.3558 97.3712,-35.5053 102.686,-44.6707 107.2416,-39.3558"/>
</g>
<!-- transB -->
<g id="node4" class="node">
<title>transB</title>
<ellipse fill="none" stroke="transparent" cx="244.9484" cy="-18" rx="73.0105" ry="18"/>
<text text-anchor="middle" x="244.9484" y="-14.9" font-family="'Lato,proxima-nova,Helvetica Neue,Arial,sans-serif'" font-size="12.00" fill="#000000">Transfer y to Bob</text>
</g>
<!-- and1&#45;&gt;transB -->
<g id="edge3" class="edge">
<title>and1&#45;&gt;transB</title>
<path fill="none" stroke="#000000" d="M177.5441,-75.7751C188.7099,-66.2044 203.7128,-53.3448 216.7295,-42.1876"/>
<polygon fill="#000000" stroke="#000000" points="219.2107,-44.6707 224.5255,-35.5053 214.6552,-39.3558 219.2107,-44.6707"/>
</g>
</g>
</svg>
