<?xml version="1.0" encoding="UTF-8" standalone="no"?>
<!DOCTYPE svg PUBLIC "-//W3C//DTD SVG 1.1//EN"
 "http://www.w3.org/Graphics/SVG/1.1/DTD/svg11.dtd">
<!-- Generated by graphviz version 2.43.0 (0)
 -->
<!-- Title: G Pages: 1 -->
<svg width="234pt" height="190pt"
 viewBox="0.00 0.00 234.00 190.00" xmlns="http://www.w3.org/2000/svg" xmlns:xlink="http://www.w3.org/1999/xlink">
<g id="graph0" class="graph" transform="scale(1 1) rotate(0) translate(4 186)">
<title>G</title>
<g id="clust1" class="cluster">
<title>cluster_0</title>
<polygon fill="transparent" stroke="black" points="8,-101 8,-174 109,-174 109,-101 8,-101"/>
<text text-anchor="middle" x="58.5" y="-160.4" font-family="'Lato,proxima-nova,Helvetica Neue,Arial,sans-serif'" font-size="12.00">My module v1</text>
</g>
<g id="clust2" class="cluster">
<title>cluster_2</title>
<polygon fill="transparent" stroke="black" points="117,-101 117,-174 218,-174 218,-101 117,-101"/>
<text text-anchor="middle" x="167.5" y="-160.4" font-family="'Lato,proxima-nova,Helvetica Neue,Arial,sans-serif'" font-size="12.00">My module v2</text>
</g>
<g id="clust3" class="cluster">
<title>cluster_1</title>
<polygon fill="transparent" stroke="black" stroke-dasharray="1,5" points="36,-8 36,-81 178,-81 178,-8 36,-8"/>
<text text-anchor="middle" x="107" y="-15.4" font-family="'Lato,proxima-nova,Helvetica Neue,Arial,sans-serif'" font-size="12.00">Instances</text>
</g>
<!-- escrow -->
<g id="node1" class="node">
<title>escrow</title>
<polygon fill="none" stroke="black" points="94.5,-145 41.5,-145 41.5,-109 100.5,-109 100.5,-139 94.5,-145"/>
<polyline fill="none" stroke="black" points="94.5,-145 94.5,-139 "/>
<polyline fill="none" stroke="black" points="100.5,-139 94.5,-139 "/>
<text text-anchor="middle" x="71" y="-123.9" font-family="'Lato,proxima-nova,Helvetica Neue,Arial,sans-serif'" font-size="12.00">Escrow</text>
</g>
<!-- escrow2 -->
<g id="node2" class="node">
<title>escrow2</title>
<polygon fill="none" stroke="black" points="178.5,-145 125.5,-145 125.5,-109 184.5,-109 184.5,-139 178.5,-145"/>
<polyline fill="none" stroke="black" points="178.5,-145 178.5,-139 "/>
<polyline fill="none" stroke="black" points="184.5,-139 178.5,-139 "/>
<text text-anchor="middle" x="155" y="-123.9" font-family="'Lato,proxima-nova,Helvetica Neue,Arial,sans-serif'" font-size="12.00">Escrow</text>
</g>
<!-- House -->
<g id="node3" class="node">
<title>House</title>
<path fill="none" stroke="black" d="M86,-73C86,-73 56,-73 56,-73 50,-73 44,-67 44,-61 44,-61 44,-49 44,-49 44,-43 50,-37 56,-37 56,-37 86,-37 86,-37 92,-37 98,-43 98,-49 98,-49 98,-61 98,-61 98,-67 92,-73 86,-73"/>
<text text-anchor="middle" x="71" y="-51.9" font-family="'Lato,proxima-nova,Helvetica Neue,Arial,sans-serif'" font-size="12.00">House</text>
</g>
<!-- House&#45;&gt;escrow -->
<g id="edge1" class="edge">
<title>House:n&#45;&gt;escrow</title>
<path fill="none" stroke="black" d="M71,-74C71,-81.94 71,-90.57 71,-98.47"/>
<polygon fill="black" stroke="black" points="67.5,-98.67 71,-108.67 74.5,-98.67 67.5,-98.67"/>
</g>
<!-- Car -->
<g id="node4" class="node">
<title>Car</title>
<path fill="none" stroke="black" d="M158,-73C158,-73 128,-73 128,-73 122,-73 116,-67 116,-61 116,-61 116,-49 116,-49 116,-43 122,-37 128,-37 128,-37 158,-37 158,-37 164,-37 170,-43 170,-49 170,-49 170,-61 170,-61 170,-67 164,-73 158,-73"/>
<text text-anchor="middle" x="143" y="-51.9" font-family="'Lato,proxima-nova,Helvetica Neue,Arial,sans-serif'" font-size="12.00">Car</text>
</g>
<!-- Car&#45;&gt;escrow -->
<g id="edge2" class="edge">
<title>Car:n&#45;&gt;escrow</title>
<path fill="none" stroke="black" stroke-dasharray="5,2" d="M143,-74C143,-78.87 125.47,-91.6 107.71,-103.24"/>
<polygon fill="none" stroke="black" points="105.55,-100.47 99.04,-108.83 109.34,-106.35 105.55,-100.47"/>
</g>
<!-- Car&#45;&gt;escrow2 -->
<g id="edge3" class="edge">
<title>Car:n&#45;&gt;escrow2</title>
<path fill="none" stroke="black" stroke-width="2" d="M143,-74C143,-82.25 144.45,-91.04 146.34,-99.01"/>
<polygon fill="black" stroke="black" stroke-width="2" points="143.02,-100.15 149,-108.89 149.78,-98.33 143.02,-100.15"/>
</g>
</g>
</svg>
