<?xml version="1.0" encoding="UTF-8" standalone="no"?>
<!DOCTYPE svg PUBLIC "-//W3C//DTD SVG 1.1//EN"
 "http://www.w3.org/Graphics/SVG/1.1/DTD/svg11.dtd">
<!-- Generated by graphviz version 2.43.0 (0)
 -->
<!-- Title: G Pages: 1 -->
<svg width="348pt" height="190pt"
 viewBox="0.00 0.00 348.00 190.00" xmlns="http://www.w3.org/2000/svg" xmlns:xlink="http://www.w3.org/1999/xlink">
<g id="graph0" class="graph" transform="scale(1 1) rotate(0) translate(4 186)">
<title>G</title>
<g id="clust1" class="cluster">
<title>cluster_0</title>
<polygon fill="transparent" stroke="black" points="72,-101 72,-174 265,-174 265,-101 72,-101"/>
<text text-anchor="middle" x="168.5" y="-160.4" font-family="'Lato,proxima-nova,Helvetica Neue,Arial,sans-serif'" font-size="12.00">Module</text>
</g>
<g id="clust2" class="cluster">
<title>cluster_1</title>
<polygon fill="transparent" stroke="black" stroke-dasharray="1,5" points="8,-8 8,-81 332,-81 332,-8 8,-8"/>
<text text-anchor="middle" x="170" y="-15.4" font-family="'Lato,proxima-nova,Helvetica Neue,Arial,sans-serif'" font-size="12.00">Instances</text>
</g>
<!-- Crowdfunding -->
<g id="node1" class="node">
<title>Crowdfunding</title>
<polygon fill="none" stroke="black" points="250.5,-145 157.5,-145 157.5,-109 256.5,-109 256.5,-139 250.5,-145"/>
<polyline fill="none" stroke="black" points="250.5,-145 250.5,-139 "/>
<polyline fill="none" stroke="black" points="256.5,-139 250.5,-139 "/>
<text text-anchor="middle" x="207" y="-123.9" font-family="'Lato,proxima-nova,Helvetica Neue,Arial,sans-serif'" font-size="12.00">Crowdfunding</text>
</g>
<!-- Escrow -->
<g id="node2" class="node">
<title>Escrow</title>
<polygon fill="none" stroke="black" points="133.5,-145 80.5,-145 80.5,-109 139.5,-109 139.5,-139 133.5,-145"/>
<polyline fill="none" stroke="black" points="133.5,-145 133.5,-139 "/>
<polyline fill="none" stroke="black" points="139.5,-139 133.5,-139 "/>
<text text-anchor="middle" x="110" y="-123.9" font-family="'Lato,proxima-nova,Helvetica Neue,Arial,sans-serif'" font-size="12.00">Escrow</text>
</g>
<!-- House -->
<g id="node3" class="node">
<title>House</title>
<path fill="none" stroke="black" d="M130,-73C130,-73 100,-73 100,-73 94,-73 88,-67 88,-61 88,-61 88,-49 88,-49 88,-43 94,-37 100,-37 100,-37 130,-37 130,-37 136,-37 142,-43 142,-49 142,-49 142,-61 142,-61 142,-67 136,-73 130,-73"/>
<text text-anchor="middle" x="115" y="-51.9" font-family="'Lato,proxima-nova,Helvetica Neue,Arial,sans-serif'" font-size="12.00">House</text>
</g>
<!-- House&#45;&gt;Escrow -->
<g id="edge1" class="edge">
<title>House:n&#45;&gt;Escrow</title>
<path fill="none" stroke="black" d="M115,-74C115,-81.98 114.41,-90.62 113.63,-98.52"/>
<polygon fill="black" stroke="black" points="110.13,-98.38 112.5,-108.71 117.08,-99.16 110.13,-98.38"/>
</g>
<!-- Car -->
<g id="node4" class="node">
<title>Car</title>
<path fill="none" stroke="black" d="M58,-73C58,-73 28,-73 28,-73 22,-73 16,-67 16,-61 16,-61 16,-49 16,-49 16,-43 22,-37 28,-37 28,-37 58,-37 58,-37 64,-37 70,-43 70,-49 70,-49 70,-61 70,-61 70,-67 64,-73 58,-73"/>
<text text-anchor="middle" x="43" y="-51.9" font-family="'Lato,proxima-nova,Helvetica Neue,Arial,sans-serif'" font-size="12.00">Car</text>
</g>
<!-- Car&#45;&gt;Escrow -->
<g id="edge2" class="edge">
<title>Car:n&#45;&gt;Escrow</title>
<path fill="none" stroke="black" d="M43,-74C43,-90.83 56.35,-102.99 71.13,-111.31"/>
<polygon fill="black" stroke="black" points="69.91,-114.61 80.42,-115.99 73.07,-108.36 69.91,-114.61"/>
</g>
<!-- Gadget -->
<g id="node5" class="node">
<title>Gadget</title>
<path fill="none" stroke="black" d="M312,-73C312,-73 276,-73 276,-73 270,-73 264,-67 264,-61 264,-61 264,-49 264,-49 264,-43 270,-37 276,-37 276,-37 312,-37 312,-37 318,-37 324,-43 324,-49 324,-49 324,-61 324,-61 324,-67 318,-73 312,-73"/>
<text text-anchor="middle" x="294" y="-51.9" font-family="'Lato,proxima-nova,Helvetica Neue,Arial,sans-serif'" font-size="12.00">Gadget</text>
</g>
<!-- Gadget&#45;&gt;Crowdfunding -->
<g id="edge3" class="edge">
<title>Gadget:n&#45;&gt;Crowdfunding</title>
<path fill="none" stroke="black" d="M294,-74C294,-91.06 281.52,-102.66 266.01,-110.48"/>
<polygon fill="black" stroke="black" points="264.31,-107.41 256.6,-114.67 267.16,-113.8 264.31,-107.41"/>
</g>
<!-- Boardgame -->
<g id="node6" class="node">
<title>Boardgame</title>
<path fill="none" stroke="black" d="M234,-73C234,-73 172,-73 172,-73 166,-73 160,-67 160,-61 160,-61 160,-49 160,-49 160,-43 166,-37 172,-37 172,-37 234,-37 234,-37 240,-37 246,-43 246,-49 246,-49 246,-61 246,-61 246,-67 240,-73 234,-73"/>
<text text-anchor="middle" x="203" y="-51.9" font-family="'Lato,proxima-nova,Helvetica Neue,Arial,sans-serif'" font-size="12.00">Boardgame</text>
</g>
<!-- Boardgame&#45;&gt;Crowdfunding -->
<g id="edge4" class="edge">
<title>Boardgame:n&#45;&gt;Crowdfunding</title>
<path fill="none" stroke="black" d="M203,-74C203,-81.97 203.47,-90.6 204.09,-98.5"/>
<polygon fill="black" stroke="black" points="200.63,-99.04 205,-108.69 207.6,-98.42 200.63,-99.04"/>
</g>
</g>
</svg>
