<svg width="262" height="54" viewBox="0 0 262 54" fill="none" xmlns="http://www.w3.org/2000/svg">
<path d="M87.0176 53V49.9238L89.7422 49.3965V31.0273L87.0176 30.5V27.4062H97.3359L104.314 45.248H104.42L111.17 27.4062H121.506V30.5L118.764 31.0273V49.3965L121.506 49.9238V53H110.906V49.9238L113.771 49.3965V44.4922L113.859 32.9434L113.754 32.9258L106.107 52.6484H102.223L94.4004 33.084L94.2949 33.1016L94.5938 43.9648V49.3965L97.6172 49.9238V53H87.0176ZM129.82 53.3691C127.934 53.3691 126.434 52.8652 125.32 51.8574C124.207 50.8379 123.65 49.4551 123.65 47.709C123.65 45.9277 124.371 44.4746 125.812 43.3496C127.266 42.2246 129.398 41.6621 132.211 41.6621H134.725V40.2559C134.725 39.3418 134.455 38.6035 133.916 38.041C133.389 37.4668 132.592 37.1797 131.525 37.1797C130.975 37.1797 130.477 37.25 130.031 37.3906C129.598 37.5195 129.205 37.707 128.854 37.9531L128.449 40.4668H124.758L124.688 35.5273C125.684 34.9648 126.762 34.5078 127.922 34.1562C129.082 33.8047 130.377 33.6289 131.807 33.6289C134.291 33.6289 136.254 34.209 137.695 35.3691C139.137 36.5293 139.857 38.1758 139.857 40.3086V48.1484C139.857 48.4062 139.857 48.6582 139.857 48.9043C139.869 49.1504 139.893 49.3965 139.928 49.6426L141.914 49.9238V53H135.551C135.422 52.6719 135.293 52.3203 135.164 51.9453C135.035 51.5703 134.941 51.1953 134.883 50.8203C134.273 51.5938 133.553 52.2148 132.721 52.6836C131.9 53.1406 130.934 53.3691 129.82 53.3691ZM131.191 49.5723C131.906 49.5723 132.58 49.4141 133.213 49.0977C133.857 48.7695 134.361 48.3418 134.725 47.8145V44.8086H132.193C131.068 44.8086 130.213 45.0664 129.627 45.582C129.053 46.0977 128.766 46.7188 128.766 47.4453C128.766 48.125 128.977 48.6523 129.398 49.0273C129.832 49.3906 130.43 49.5723 131.191 49.5723ZM143.584 53V49.9238L146.062 49.3965V37.6016L143.32 37.0742V33.9805H151.195V49.3965L153.656 49.9238V53H143.584ZM145.887 29.9551V25.5781H151.195V29.9551H145.887ZM155.186 53V49.9238L157.646 49.3965V37.6016L154.922 37.0742V33.9805H162.428L162.656 36.7051C163.289 35.7324 164.068 34.9766 164.994 34.4375C165.932 33.8984 166.998 33.6289 168.193 33.6289C170.068 33.6289 171.539 34.2324 172.605 35.4395C173.684 36.6465 174.223 38.5391 174.223 41.1172V49.3965L176.684 49.9238V53H166.875V49.9238L169.072 49.3965V41.1348C169.072 39.8574 168.814 38.9551 168.299 38.4277C167.795 37.8887 167.051 37.6191 166.066 37.6191C164.637 37.6191 163.541 38.2168 162.779 39.4121V49.3965L164.854 49.9238V53H155.186ZM178.178 53V49.9238L180.639 49.3965V37.6016L177.914 37.0742V33.9805H185.42L185.648 36.7051C186.281 35.7324 187.061 34.9766 187.986 34.4375C188.924 33.8984 189.99 33.6289 191.186 33.6289C193.061 33.6289 194.531 34.2324 195.598 35.4395C196.676 36.6465 197.215 38.5391 197.215 41.1172V49.3965L199.676 49.9238V53H189.867V49.9238L192.064 49.3965V41.1348C192.064 39.8574 191.807 38.9551 191.291 38.4277C190.787 37.8887 190.043 37.6191 189.059 37.6191C187.629 37.6191 186.533 38.2168 185.771 39.4121V49.3965L187.846 49.9238V53H178.178ZM210.293 53.3691C208.465 53.3691 206.871 52.9707 205.512 52.1738C204.164 51.3652 203.115 50.2578 202.365 48.8516C201.627 47.4453 201.258 45.8398 201.258 44.0352V43.332C201.258 41.4453 201.609 39.7754 202.312 38.3223C203.016 36.8574 204.006 35.709 205.283 34.877C206.572 34.0332 208.09 33.6172 209.836 33.6289C212.402 33.6289 214.365 34.3848 215.725 35.8965C217.084 37.3965 217.764 39.5059 217.764 42.2246V45.0195H206.584L206.549 45.125C206.643 46.3789 207.059 47.4102 207.797 48.2188C208.535 49.0273 209.584 49.4316 210.943 49.4316C211.881 49.4316 212.754 49.3145 213.562 49.0801C214.383 48.834 215.18 48.4766 215.953 48.0078L217.342 51.1719C216.557 51.8047 215.566 52.332 214.371 52.7539C213.188 53.1641 211.828 53.3691 210.293 53.3691ZM206.619 41.627H212.965V41.1699C212.965 40.0215 212.725 39.1133 212.244 38.4453C211.775 37.7656 211.002 37.4258 209.924 37.4258C208.893 37.4258 208.107 37.8184 207.568 38.6035C207.029 39.377 206.695 40.3555 206.566 41.5391L206.619 41.627ZM227.607 53.3691C225.838 53.3691 224.473 52.8828 223.512 51.9102C222.562 50.9375 222.088 49.3965 222.088 47.2871V37.584H219.469V33.9805H222.088V29.3223H227.203V33.9805H230.701V37.584H227.203V47.2695C227.203 48.0078 227.355 48.5352 227.66 48.8516C227.977 49.168 228.404 49.3262 228.943 49.3262C229.225 49.3262 229.529 49.3086 229.857 49.2734C230.186 49.2266 230.467 49.1797 230.701 49.1328L231.141 52.8418C230.625 52.9941 230.057 53.1172 229.436 53.2109C228.814 53.3164 228.205 53.3691 227.607 53.3691Z" fill="white"/>
<path d="M181.211 17.817C180.818 17.817 180.424 17.6479 180.143 17.366L172.951 9.97979C172.502 9.52872 172.389 8.90851 172.67 8.34468C172.895 7.78085 173.401 7.44255 174.019 7.44255H177.109C178.458 7.44255 179.581 6.42766 179.581 5.24362C179.581 4.11596 178.401 3.10106 177.053 3.10106H171.209C171.209 3.10106 171.153 3.15745 171.153 3.21383V16.3511C171.153 17.1968 170.479 17.8734 169.636 17.8734C168.849 17.8734 168.175 17.1968 168.175 16.3511V3.21383C168.175 1.52234 169.524 0.169149 171.153 0.169149H176.997C179.975 0.169149 182.447 2.42447 182.447 5.24362C182.447 7.89362 180.256 10.2053 177.502 10.4308L182.222 15.2798C182.559 15.5617 182.728 16.0128 182.672 16.4074C182.672 16.8021 182.447 17.1968 182.166 17.4787C181.941 17.7043 181.548 17.817 181.211 17.817ZM222.51 17.817C219.925 17.817 217.958 17.084 216.554 15.6745C215.149 14.2649 214.419 12.1223 214.419 9.47234V1.52234C214.419 0.676596 215.093 0 215.879 0C216.722 0 217.397 0.676596 217.397 1.52234V9.47234C217.397 13.1936 219.026 14.8287 222.622 14.8287C226.274 14.8287 227.848 13.25 227.848 9.47234V1.52234C227.848 0.676596 228.522 0 229.309 0C230.095 0 230.77 0.676596 230.77 1.52234V9.47234C230.77 14.8287 227.848 17.817 222.566 17.817C222.566 17.817 222.566 17.817 222.51 17.817ZM251.784 17.817C250.941 17.817 250.267 17.1404 250.267 16.2947V3.10106C250.211 3.04468 250.211 3.10106 250.211 3.10106L246.727 8.90851C246.221 9.81064 245.21 10.3745 244.142 10.3745C243.075 10.3745 242.176 9.81064 241.558 8.90851L238.074 3.10106C238.074 3.04468 238.018 3.04468 238.018 3.04468V16.2947C238.018 17.1404 237.344 17.817 236.501 17.817C235.714 17.817 235.04 17.1404 235.04 16.2947V3.10106C235.04 1.40957 236.388 0.0563821 238.018 0.0563821C239.085 0.0563821 240.041 0.620212 240.603 1.57872L244.086 7.38617C244.142 7.44255 244.142 7.44255 244.142 7.44255L244.199 7.38617L247.682 1.57872C248.244 0.620212 249.199 0.0563821 250.267 0.0563821C251.897 0.0563821 253.245 1.40957 253.245 3.10106V16.3511C253.301 17.1404 252.627 17.817 251.784 17.817ZM208.463 17.817C207.676 17.817 207.002 17.1404 207.002 16.2947V1.57872C207.002 0.732978 207.676 0.0563821 208.463 0.0563821C209.305 0.0563821 209.98 0.732978 209.98 1.57872V16.3511C209.98 17.1404 209.305 17.817 208.463 17.817ZM155.027 17.817C149.408 17.817 145.643 14.2649 145.643 8.90851C145.643 3.66489 149.52 0 155.027 0C160.646 0 164.41 3.55213 164.41 8.90851C164.467 14.2649 160.646 17.817 155.027 17.817ZM155.027 3.04468C150.981 3.04468 148.621 5.24362 148.621 8.90851C148.621 12.5734 151.037 14.7723 155.027 14.7723C159.072 14.7723 161.432 12.5734 161.432 8.90851C161.489 5.24362 159.072 3.04468 155.027 3.04468ZM135.417 17.817C129.798 17.817 126.033 14.2649 126.033 8.90851C126.033 3.66489 129.91 0 135.417 0C138.114 0 140.474 0.789362 142.16 2.36809C142.441 2.65 142.609 2.9883 142.665 3.38298C142.665 3.77766 142.553 4.17234 142.272 4.45425C141.991 4.73617 141.654 4.90532 141.261 4.9617C140.867 4.9617 140.474 4.84894 140.193 4.56702C139.069 3.55213 137.44 2.9883 135.417 2.9883C131.371 2.9883 129.011 5.18723 129.011 8.85213C129.011 12.517 131.428 14.716 135.417 14.716C137.384 14.716 139.069 14.1521 140.193 13.1372C140.474 12.8553 140.867 12.7426 141.261 12.7426C141.654 12.7426 141.991 12.9681 142.272 13.25C142.834 13.8702 142.778 14.8287 142.16 15.3926C140.474 16.9713 138.17 17.817 135.417 17.817ZM119.403 17.817C118.336 17.817 117.38 17.2532 116.818 16.3511L109.064 3.10106C109.064 3.04468 109.008 3.04468 109.008 3.04468L108.952 16.2947C108.952 17.1404 108.278 17.817 107.491 17.817C106.648 17.817 105.974 17.1404 105.974 16.2947V3.10106C105.974 1.40957 107.322 0.0563821 108.952 0.0563821C110.02 0.0563821 110.975 0.620212 111.537 1.57872L119.291 14.8287C119.291 14.8287 119.291 14.8851 119.347 14.8851C119.403 14.8851 119.403 14.8851 119.403 14.8287V1.57872C119.403 0.732978 120.021 0.0563821 120.864 0.0563821C121.707 0.0563821 122.381 0.732978 122.381 1.57872V14.7723C122.381 16.4638 121.033 17.817 119.403 17.817ZM92.8819 17.817C87.263 17.817 83.4984 14.2649 83.4984 8.90851C83.4984 3.66489 87.3754 0 92.8819 0C98.5008 0 102.265 3.55213 102.265 8.90851C102.265 14.2649 98.5008 17.817 92.8819 17.817ZM92.8819 3.04468C88.8363 3.04468 86.4764 5.24362 86.4764 8.90851C86.4764 12.5734 88.8925 14.7723 92.8819 14.7723C96.9275 14.7723 99.2875 12.5734 99.2875 8.90851C99.2875 5.24362 96.8713 3.04468 92.8819 3.04468ZM73.2158 17.817C67.5969 17.817 63.8323 14.2649 63.8323 8.90851C63.8323 3.66489 67.7093 0 73.2158 0C75.9129 0 78.2728 0.789362 79.9585 2.36809C80.2394 2.65 80.408 2.9883 80.4642 3.38298C80.4642 3.77766 80.3518 4.17234 80.0709 4.45425C79.7899 4.73617 79.4528 4.90532 79.0595 4.9617C78.6661 4.9617 78.2728 4.84894 77.9919 4.56702C76.8681 3.55213 75.2386 2.9883 73.2158 2.9883C69.1702 2.9883 66.8103 5.18723 66.8103 8.85213C66.8103 12.517 69.2264 14.716 73.2158 14.716C75.1824 14.716 76.8681 14.1521 77.9919 13.1372C78.2728 12.8553 78.6661 12.7426 79.0595 12.7426C79.4528 12.7426 79.7899 12.9681 80.0709 13.25C80.6328 13.8702 80.5766 14.8287 79.9585 15.3926C78.329 16.9713 75.9691 17.817 73.2158 17.817ZM193.797 17.7043C193.741 17.7043 193.685 17.7043 193.629 17.7043H189.414C187.785 17.7043 186.436 16.3511 186.436 14.6596V3.21383C186.436 1.52234 187.785 0.169149 189.414 0.169149H193.629C196.831 0.112766 199.248 0.902126 200.821 2.48085C202.282 3.94681 203.012 6.14574 203.012 8.90851C203.012 11.7277 202.282 13.8702 200.821 15.3362C199.304 16.9713 197 17.7043 193.797 17.7043ZM193.741 3.10106H193.685H189.471L189.414 3.15745V14.6032L189.471 14.6596H193.685C196.101 14.6596 197.787 14.2085 198.742 13.1936C199.641 12.2915 200.09 10.8255 200.09 8.85213C200.09 6.87872 199.641 5.46915 198.742 4.51064C197.787 3.60851 196.157 3.10106 193.741 3.10106Z" fill="white"/>
<path d="M50.2329 37.7197H40.8494C43.2093 34.6187 44.6702 30.7282 44.6702 26.4995C44.6702 22.2708 43.2093 18.3804 40.8494 15.2793H50.2329C51.8062 18.7187 52.7052 22.4963 52.7052 26.4995C52.7052 30.5027 51.8624 34.2804 50.2329 37.7197Z" fill="white"/>
<path d="M26.3526 37.6641C32.528 37.6641 37.5342 32.6406 37.5342 26.4438C37.5342 20.2471 32.528 15.2236 26.3526 15.2236C20.1772 15.2236 15.171 20.2471 15.171 26.4438C15.171 32.6406 20.1772 37.6641 26.3526 37.6641Z" fill="white"/>
<path d="M8.03501 26.5C8.03501 36.6489 16.2386 44.9372 26.3526 44.9372C29.0497 44.9372 31.6344 44.317 33.9381 43.2457V51.8723C31.522 52.6053 28.9935 53 26.3526 53C11.7997 53 0 41.1032 0 26.5C0 11.8404 11.7997 0 26.3526 0C28.9935 0 31.522 0.394681 33.9381 1.12766V9.75425C31.6344 8.68298 29.0497 8.06277 26.3526 8.06277C16.2386 8.06277 8.03501 16.2947 8.03501 26.5Z" fill="white"/>
</svg>
