<?xml version="1.0" encoding="UTF-8" standalone="no" ?>
<!DOCTYPE svg PUBLIC "-//W3C//DTD SVG 1.1//EN" "http://www.w3.org/Graphics/SVG/1.1/DTD/svg11.dtd">
<svg xmlns="http://www.w3.org/2000/svg" xmlns:xlink="http://www.w3.org/1999/xlink" version="1.1" width="500" height="500" viewBox="0 0 500 500" xml:space="preserve">
<desc>Created with Fabric.js 4.6.0</desc>
<defs>
</defs>
<g transform="matrix(2.43 0 0 2.43 248.72 251.28)" id="drDtjltbzQx8Z9RLKCc98"  >
<g style="" vector-effect="non-scaling-stroke"   >
		<g transform="matrix(1 0 0 1 39.92 -39.95)" id="fyGnskUx12lIZ5ZEq8059"  >
<path style="stroke: none; stroke-width: 1; stroke-dasharray: none; stroke-linecap: butt; stroke-dashoffset: 0; stroke-linejoin: miter; stroke-miterlimit: 4; fill: rgb(122,122,122); fill-rule: evenodd; opacity: 1;" vector-effect="non-scaling-stroke"  transform=" translate(-121.97, -46.02)" d="M 82.0007 6.00021 C 81.9691 8.60012 82.9451 11.21 84.9289 13.1938 L 154.845 83.1096 C 156.802 85.0665 159.368 86.0428 161.932 86.0386 C 161.921 85.846 161.916 85.6519 161.916 85.4566 L 161.916 6.00019 L 82.0007 6.00021 Z" stroke-linecap="round" />
</g>
		<g transform="matrix(1 0 0 1 39.95 -40)" id="Ii2m2g1qTVHSxAd7vvbdd"  >
<path style="stroke: none; stroke-width: 1; stroke-dasharray: none; stroke-linecap: butt; stroke-dashoffset: 0; stroke-linejoin: miter; stroke-miterlimit: 4; fill: rgb(122,122,122); fill-rule: evenodd; opacity: 1;" vector-effect="non-scaling-stroke"  transform=" translate(-122, -45.97)" d="M 161.964 85.9862 C 161.995 83.3864 161.019 80.7767 159.036 78.793 L 89.1198 8.87717 C 87.163 6.92031 84.5969 5.94401 82.0321 5.94825 C 82.0432 6.14072 82.0488 6.33465 82.0488 6.52989 L 82.0487 85.9862 L 161.964 85.9862 Z" stroke-linecap="round" />
</g>
		<g transform="matrix(1 0 0 1 8.48 -8.48)" id="VTf4ZR0x22uUiN4T5tie8"  >
<path style="stroke: none; stroke-width: 1; stroke-dasharray: none; stroke-linecap: butt; stroke-dashoffset: 0; stroke-linejoin: miter; stroke-miterlimit: 4; fill: rgb(255,212,42); fill-rule: nonzero; opacity: 1;" vector-effect="non-scaling-stroke"  transform=" translate(-47.81, -47.81)" d="M 0 47.8128 C 0 21.406520000000004 21.40652 0 47.8128 0 C 74.21908 0 95.6256 21.40652 95.6256 47.8128 C 95.6256 74.21908 74.21908 95.6256 47.8128 95.6256 C 21.406520000000004 95.6256 0 74.21908 0 47.8128 z" stroke-linecap="round" />
</g>
		<g transform="matrix(1 0 0 1 36.89 -8.48)" id="ZmPbY93V0dEY9LqsPhVSn"  >
<path style="stroke: none; stroke-width: 1; stroke-dasharray: none; stroke-linecap: butt; stroke-dashoffset: 0; stroke-linejoin: miter; stroke-miterlimit: 4; fill: rgb(0,0,0); fill-rule: nonzero; opacity: 1;" vector-effect="non-scaling-stroke"  transform=" translate(-118.93, -77.49)" d="M 123.753 93.0889 L 110.663 93.0889 C 113.955 88.778 115.993 83.3696 115.993 77.491 C 115.993 71.6124 113.955 66.2041 110.663 61.8931 L 123.753 61.8931 C 125.947 66.6743 127.202 71.9259 127.202 77.491 C 127.202 83.0561 126.026 88.3077 123.753 93.0889 Z" stroke-linecap="round" />
</g>
		<g transform="matrix(1 0 0 1 8.4 -8.55)" id="1M4m47kfxiCoMokPnxmBS"  >
<path style="stroke: none; stroke-width: 1; stroke-dasharray: none; stroke-linecap: butt; stroke-dashoffset: 0; stroke-linejoin: miter; stroke-miterlimit: 4; fill: rgb(0,0,0); fill-rule: nonzero; opacity: 1;" vector-effect="non-scaling-stroke"  transform=" translate(-90.44, -77.41)" d="M 90.4407 93.0103 C 99.0552 93.0103 106.039 86.0269 106.039 77.4124 C 106.039 68.7979 99.0552 61.8145 90.4407 61.8145 C 81.8262 61.8145 74.8428 68.7979 74.8428 77.4124 C 74.8428 86.0269 81.8262 93.0103 90.4407 93.0103 Z" stroke-linecap="round" />
</g>
		<g transform="matrix(1 0 0 1 -4.69 -8.48)" id="xi9QHqZEDud7rvl79C53O"  >
<path style="stroke: none; stroke-width: 1; stroke-dasharray: none; stroke-linecap: butt; stroke-dashoffset: 0; stroke-linejoin: miter; stroke-miterlimit: 4; fill: rgb(0,0,0); fill-rule: nonzero; opacity: 1;" vector-effect="non-scaling-stroke"  transform=" translate(-77.35, -77.49)" d="M 64.8883 77.4907 C 64.8883 91.5994 76.332 103.122 90.4407 103.122 C 94.203 103.122 97.8085 102.259 101.022 100.77 L 101.022 112.762 C 97.6518 113.781 94.1246 114.33 90.4407 114.33 C 70.1398 114.33 53.6797 97.7916 53.6797 77.4907 C 53.6797 57.1115 70.1398 40.6514 90.4407 40.6514 C 94.1246 40.6514 97.6518 41.2 101.022 42.219 L 101.022 54.2114 C 97.8085 52.7221 94.203 51.8599 90.4407 51.8599 C 76.332 51.8599 64.8883 63.3037 64.8883 77.4907 Z" stroke-linecap="round" />
</g>
		<g transform="matrix(1 0 0 1 40.02 39.91)" id="bFdXaZJAjHximqx8WVSKv"  >
<path style="stroke: none; stroke-width: 1; stroke-dasharray: none; stroke-linecap: butt; stroke-dashoffset: 0; stroke-linejoin: miter; stroke-miterlimit: 4; fill: rgb(70,70,70); fill-rule: evenodd; opacity: 1;" vector-effect="non-scaling-stroke"  transform=" translate(-122.07, -125.88)" d="M 82.0489 165.841 C 84.6487 165.872 87.2585 164.896 89.2422 162.912 L 159.158 92.9965 C 161.115 91.0397 162.091 88.4736 162.087 85.9088 C 161.894 85.9199 161.7 85.9255 161.505 85.9255 L 82.0489 85.9255 L 82.0489 165.841 Z" stroke-linecap="round" />
</g>
		<g transform="matrix(1 0 0 1 -39.64 -40)" id="gINPJbYgc9uaoVtPnGX9C"  >
<path style="stroke: none; stroke-width: 1; stroke-dasharray: none; stroke-linecap: butt; stroke-dashoffset: 0; stroke-linejoin: miter; stroke-miterlimit: 4; fill: rgb(152,152,152); fill-rule: evenodd; opacity: 1;" vector-effect="non-scaling-stroke"  transform=" translate(-42.4, -45.96)" d="M 82.8073 5.99049 C 80.1952 5.95891 77.573 6.93041 75.5799 8.905 L 4.94256 78.8869 C 2.97753 80.8337 1.99668 83.3863 2.00001 85.9379 C 2.16994 85.9293 2.34099 85.9249 2.51305 85.9249 L 82.8073 85.9249 L 82.8073 5.99049 Z" stroke-linecap="round" />
</g>
		<g transform="matrix(1 0 0 1 -39.59 39.99)" id="DVhaFKjJbJW-oa1Z4LaL3"  >
<path style="stroke: none; stroke-width: 1; stroke-dasharray: none; stroke-linecap: butt; stroke-dashoffset: 0; stroke-linejoin: miter; stroke-miterlimit: 4; fill: rgb(122,122,122); fill-rule: evenodd; opacity: 1;" vector-effect="non-scaling-stroke"  transform=" translate(-42.45, -125.95)" d="M 2.06081 85.9249 C 2.02885 88.5116 3.0099 91.1083 5.00395 93.0821 L 75.7128 163.07 C 77.6799 165.018 80.2596 165.989 82.8379 165.984 C 82.826 165.785 82.82 165.584 82.82 165.381 L 82.82 85.9249 L 2.06081 85.9249 Z" stroke-linecap="round" />
</g>
</g>
</g>
<g transform="matrix(1 0 0 1 157.93 220.51)" id="dB1PZCunMCFf4AmHZmYFS"  >
<path style="stroke: rgb(0,0,0); stroke-width: 1; stroke-dasharray: none; stroke-linecap: round; stroke-dashoffset: 0; stroke-linejoin: round; stroke-miterlimit: 10; fill: none; fill-rule: nonzero; opacity: 1;" vector-effect="non-scaling-stroke"  transform=" translate(-157.93, -220.51)" d="M 157.92821652399996 220.50561797752812 L 157.93021652399997 220.50561797752812" stroke-linecap="round" />
</g>
<g transform="matrix(5.87 0 0 0.46 155.12 244.03)" id="zG5scsqrkBWrdSHbOFn8z"  >
<path style="stroke: rgb(66,134,111); stroke-width: 0; stroke-dasharray: none; stroke-linecap: butt; stroke-dashoffset: 0; stroke-linejoin: miter; stroke-miterlimit: 4; fill: rgb(152,152,152); fill-rule: nonzero; opacity: 1;" vector-effect="non-scaling-stroke"  transform=" translate(0, 0)" d="M -16.15169 -16.15169 L 16.151680000000002 -16.15169 L 16.151680000000002 16.151680000000002 L -16.15169 16.151680000000002 z" stroke-linecap="round" />
</g>
<g transform="matrix(1.47 0 0 0.04 153.72 249.28)" id="QefSKwrFl3sliQVPnmPDV"  >
<path style="stroke: rgb(141,79,16); stroke-width: 0; stroke-dasharray: none; stroke-linecap: butt; stroke-dashoffset: 0; stroke-linejoin: miter; stroke-miterlimit: 4; fill: rgb(152,152,152); fill-rule: nonzero; opacity: 1;" vector-effect="non-scaling-stroke"  transform=" translate(0, 0)" d="M -65.29132 -65.29132 L 65.29131 -65.29132 L 65.29131 65.29131 L -65.29132 65.29131 z" stroke-linecap="round" />
</g>
</svg>