<svg width="258" height="53" viewBox="0 0 258 53" fill="none" xmlns="http://www.w3.org/2000/svg">
<path d="M64.8135 50V47.7783L66.8066 47.3594V34.1816L64.8135 33.75V31.5156H72.9258C74.5762 31.5156 76.0319 31.9049 77.293 32.6836C78.554 33.4538 79.5358 34.5244 80.2383 35.8955C80.9492 37.2581 81.3047 38.8239 81.3047 40.5928V40.9355C81.3047 42.6875 80.9535 44.249 80.251 45.6201C79.557 46.9827 78.5837 48.0534 77.3311 48.832C76.0785 49.6107 74.627 50 72.9766 50H64.8135ZM70.5137 47.1689H72.7861C73.8102 47.1689 74.6777 46.9023 75.3887 46.3691C76.1081 45.8275 76.654 45.0869 77.0264 44.1475C77.3988 43.208 77.585 42.1374 77.585 40.9355V40.5801C77.585 39.3613 77.3988 38.2865 77.0264 37.3555C76.654 36.416 76.1081 35.6839 75.3887 35.1592C74.6777 34.626 73.8102 34.3594 72.7861 34.3594H70.5137V47.1689ZM89.5566 50.2666C88.194 50.2666 87.026 49.9704 86.0527 49.3779C85.0879 48.7855 84.3473 47.9645 83.8311 46.915C83.3148 45.8571 83.0566 44.6426 83.0566 43.2715V43.0049C83.0566 41.6423 83.3148 40.4362 83.8311 39.3867C84.3473 38.3288 85.0879 37.5036 86.0527 36.9111C87.026 36.3102 88.1855 36.0098 89.5312 36.0098C90.8854 36.0098 92.0449 36.306 93.0098 36.8984C93.9831 37.4909 94.7279 38.3161 95.2441 39.374C95.7604 40.4235 96.0186 41.6338 96.0186 43.0049V43.2715C96.0186 44.6426 95.7604 45.8571 95.2441 46.915C94.7279 47.9645 93.9873 48.7855 93.0225 49.3779C92.0576 49.9704 90.9023 50.2666 89.5566 50.2666ZM89.5566 47.4229C90.513 47.4229 91.2113 47.042 91.6514 46.2803C92.0999 45.5186 92.3242 44.5156 92.3242 43.2715V43.0049C92.3242 41.7861 92.0999 40.7917 91.6514 40.0215C91.2028 39.2513 90.4961 38.8662 89.5312 38.8662C88.5664 38.8662 87.8639 39.2513 87.4238 40.0215C86.9837 40.7917 86.7637 41.7861 86.7637 43.0049V43.2715C86.7637 44.5241 86.9837 45.5312 87.4238 46.293C87.8639 47.0462 88.5749 47.4229 89.5566 47.4229ZM104.271 50.2666C102.95 50.2666 101.808 49.9704 100.843 49.3779C99.8864 48.7855 99.1501 47.9688 98.6338 46.9277C98.1175 45.8867 97.8594 44.6891 97.8594 43.335V42.9541C97.8594 41.6084 98.1217 40.415 98.6465 39.374C99.1712 38.3245 99.9118 37.5036 100.868 36.9111C101.825 36.3102 102.95 36.0098 104.245 36.0098C105.472 36.0098 106.535 36.2044 107.432 36.5938C108.329 36.9746 109.057 37.4189 109.615 37.9268L109.59 41.8623H106.797L106.302 39.4121C106.099 39.209 105.84 39.0439 105.527 38.917C105.214 38.79 104.897 38.7266 104.575 38.7266C103.56 38.7266 102.802 39.1032 102.303 39.8564C101.812 40.6012 101.566 41.6338 101.566 42.9541V43.335C101.566 44.7484 101.833 45.7852 102.366 46.4453C102.899 47.097 103.543 47.4229 104.296 47.4229C104.948 47.4229 105.468 47.2536 105.857 46.915C106.255 46.568 106.53 46.0814 106.683 45.4551H109.844L109.882 45.5312C109.662 46.9954 109.12 48.1507 108.257 48.9971C107.394 49.8434 106.065 50.2666 104.271 50.2666ZM117.372 50.2666C115.916 50.2666 114.778 49.8096 113.957 48.8955C113.136 47.973 112.726 46.5426 112.726 44.6045V38.8789L111.215 38.498V36.2637H116.433V44.6299C116.433 45.6117 116.602 46.3184 116.94 46.75C117.287 47.1732 117.808 47.3848 118.502 47.3848C119.611 47.3848 120.444 46.9701 121.003 46.1406V38.8789L119.365 38.498V36.2637H124.71V47.3975L126.36 47.7783V50H121.46L121.206 48.2607C120.3 49.598 119.022 50.2666 117.372 50.2666ZM127.604 50V47.7783L129.395 47.3975V38.8789L127.414 38.498V36.2637H132.835L132.987 38.0791C133.427 37.4189 133.978 36.9111 134.638 36.5557C135.306 36.1917 136.076 36.0098 136.948 36.0098C137.828 36.0098 138.582 36.2044 139.208 36.5938C139.834 36.9831 140.308 37.5713 140.63 38.3584C141.053 37.6221 141.603 37.0465 142.28 36.6318C142.957 36.2171 143.753 36.0098 144.667 36.0098C146.021 36.0098 147.088 36.471 147.866 37.3936C148.653 38.3161 149.047 39.721 149.047 41.6084V47.3975L150.837 47.7783V50H143.74V47.7783L145.34 47.3975V41.5957C145.34 40.5885 145.171 39.8861 144.832 39.4883C144.502 39.0905 144.02 38.8916 143.385 38.8916C142.809 38.8916 142.323 39.0566 141.925 39.3867C141.527 39.7083 141.239 40.1357 141.062 40.6689V47.3975L142.56 47.7783V50H135.869V47.7783L137.367 47.3975V41.5957C137.367 40.6055 137.198 39.9072 136.859 39.501C136.529 39.0947 136.038 38.8916 135.387 38.8916C134.363 38.8916 133.597 39.3021 133.089 40.123V47.3975L134.688 47.7783V50H127.604ZM158.543 50.2666C157.223 50.2666 156.072 49.9788 155.09 49.4033C154.117 48.8193 153.359 48.0195 152.817 47.0039C152.284 45.9883 152.018 44.8288 152.018 43.5254V43.0176C152.018 41.6549 152.271 40.4489 152.779 39.3994C153.287 38.3415 154.002 37.512 154.925 36.9111C155.856 36.3018 156.952 36.0013 158.213 36.0098C160.066 36.0098 161.484 36.5557 162.466 37.6475C163.448 38.7308 163.938 40.2542 163.938 42.2178V44.2363H155.864L155.839 44.3125C155.907 45.2181 156.207 45.9629 156.74 46.5469C157.273 47.1309 158.031 47.4229 159.013 47.4229C159.69 47.4229 160.32 47.3382 160.904 47.1689C161.497 46.9912 162.072 46.7331 162.631 46.3945L163.634 48.6797C163.067 49.1367 162.352 49.5176 161.488 49.8223C160.633 50.1185 159.652 50.2666 158.543 50.2666ZM155.89 41.7861H160.473V41.4561C160.473 40.6266 160.299 39.9707 159.952 39.4883C159.614 38.9974 159.055 38.752 158.276 38.752C157.532 38.752 156.965 39.0355 156.575 39.6025C156.186 40.1611 155.945 40.8678 155.852 41.7227L155.89 41.7861ZM165.513 50V47.7783L167.29 47.3975V38.8789L165.322 38.498V36.2637H170.743L170.908 38.2314C171.365 37.529 171.928 36.9831 172.597 36.5938C173.274 36.2044 174.044 36.0098 174.907 36.0098C176.261 36.0098 177.324 36.4456 178.094 37.3174C178.872 38.1891 179.262 39.556 179.262 41.418V47.3975L181.039 47.7783V50H173.955V47.7783L175.542 47.3975V41.4307C175.542 40.5081 175.356 39.8564 174.983 39.4756C174.619 39.0863 174.082 38.8916 173.371 38.8916C172.339 38.8916 171.547 39.3232 170.997 40.1865V47.3975L172.495 47.7783V50H165.513ZM187.196 50.2666C185.918 50.2666 184.932 49.9154 184.238 49.2129C183.553 48.5104 183.21 47.3975 183.21 45.874V38.8662H181.318V36.2637H183.21V32.8994H186.904V36.2637H189.431V38.8662H186.904V45.8613C186.904 46.3945 187.014 46.7754 187.234 47.0039C187.463 47.2324 187.772 47.3467 188.161 47.3467C188.364 47.3467 188.584 47.334 188.821 47.3086C189.058 47.2747 189.261 47.2409 189.431 47.207L189.748 49.8857C189.376 49.9958 188.965 50.0846 188.517 50.1523C188.068 50.2285 187.628 50.2666 187.196 50.2666ZM195.74 50.2666C194.378 50.2666 193.294 49.9027 192.49 49.1748C191.686 48.4385 191.284 47.4398 191.284 46.1787C191.284 44.8923 191.805 43.8428 192.846 43.0303C193.895 42.2178 195.436 41.8115 197.467 41.8115H199.282V40.7959C199.282 40.1357 199.088 39.6025 198.698 39.1963C198.317 38.7816 197.742 38.5742 196.972 38.5742C196.574 38.5742 196.214 38.625 195.893 38.7266C195.579 38.8197 195.296 38.9551 195.042 39.1328L194.75 40.9482H192.084L192.033 37.3809C192.753 36.9746 193.531 36.6445 194.369 36.3906C195.207 36.1367 196.142 36.0098 197.175 36.0098C198.969 36.0098 200.387 36.4287 201.428 37.2666C202.469 38.1045 202.989 39.2936 202.989 40.834V46.4961C202.989 46.6823 202.989 46.8643 202.989 47.042C202.998 47.2197 203.015 47.3975 203.04 47.5752L204.475 47.7783V50H199.879C199.786 49.763 199.693 49.5091 199.6 49.2383C199.507 48.9674 199.439 48.6966 199.396 48.4258C198.956 48.9844 198.436 49.4329 197.835 49.7715C197.243 50.1016 196.544 50.2666 195.74 50.2666ZM196.73 47.5244C197.247 47.5244 197.733 47.4102 198.19 47.1816C198.656 46.9447 199.02 46.6357 199.282 46.2549V44.084H197.454C196.642 44.084 196.024 44.2702 195.601 44.6426C195.186 45.015 194.979 45.4635 194.979 45.9883C194.979 46.4792 195.131 46.86 195.436 47.1309C195.749 47.3932 196.18 47.5244 196.73 47.5244ZM210.733 50.2666C209.455 50.2666 208.469 49.9154 207.775 49.2129C207.09 48.5104 206.747 47.3975 206.747 45.874V38.8662H204.855V36.2637H206.747V32.8994H210.441V36.2637H212.968V38.8662H210.441V45.8613C210.441 46.3945 210.551 46.7754 210.771 47.0039C211 47.2324 211.309 47.3467 211.698 47.3467C211.901 47.3467 212.121 47.334 212.358 47.3086C212.595 47.2747 212.799 47.2409 212.968 47.207L213.285 49.8857C212.913 49.9958 212.502 50.0846 212.054 50.1523C211.605 50.2285 211.165 50.2666 210.733 50.2666ZM214.897 50V47.7783L216.688 47.3975V38.8789L214.707 38.498V36.2637H220.395V47.3975L222.172 47.7783V50H214.897ZM216.561 33.3564V30.1953H220.395V33.3564H216.561ZM229.967 50.2666C228.604 50.2666 227.436 49.9704 226.463 49.3779C225.498 48.7855 224.757 47.9645 224.241 46.915C223.725 45.8571 223.467 44.6426 223.467 43.2715V43.0049C223.467 41.6423 223.725 40.4362 224.241 39.3867C224.757 38.3288 225.498 37.5036 226.463 36.9111C227.436 36.3102 228.596 36.0098 229.941 36.0098C231.296 36.0098 232.455 36.306 233.42 36.8984C234.393 37.4909 235.138 38.3161 235.654 39.374C236.171 40.4235 236.429 41.6338 236.429 43.0049V43.2715C236.429 44.6426 236.171 45.8571 235.654 46.915C235.138 47.9645 234.397 48.7855 233.433 49.3779C232.468 49.9704 231.312 50.2666 229.967 50.2666ZM229.967 47.4229C230.923 47.4229 231.621 47.042 232.062 46.2803C232.51 45.5186 232.734 44.5156 232.734 43.2715V43.0049C232.734 41.7861 232.51 40.7917 232.062 40.0215C231.613 39.2513 230.906 38.8662 229.941 38.8662C228.977 38.8662 228.274 39.2513 227.834 40.0215C227.394 40.7917 227.174 41.7861 227.174 43.0049V43.2715C227.174 44.5241 227.394 45.5312 227.834 46.293C228.274 47.0462 228.985 47.4229 229.967 47.4229ZM237.952 50V47.7783L239.729 47.3975V38.8789L237.762 38.498V36.2637H243.183L243.348 38.2314C243.805 37.529 244.368 36.9831 245.036 36.5938C245.713 36.2044 246.483 36.0098 247.347 36.0098C248.701 36.0098 249.763 36.4456 250.533 37.3174C251.312 38.1891 251.701 39.556 251.701 41.418V47.3975L253.479 47.7783V50H246.395V47.7783L247.981 47.3975V41.4307C247.981 40.5081 247.795 39.8564 247.423 39.4756C247.059 39.0863 246.521 38.8916 245.811 38.8916C244.778 38.8916 243.987 39.3232 243.437 40.1865V47.3975L244.935 47.7783V50H237.952Z" fill="black"/>
<path d="M181.211 21.817C180.818 21.817 180.424 21.6479 180.143 21.366L172.951 13.9798C172.502 13.5287 172.389 12.9085 172.67 12.3447C172.895 11.7809 173.401 11.4426 174.019 11.4426H177.109C178.458 11.4426 179.581 10.4277 179.581 9.24362C179.581 8.11596 178.401 7.10106 177.053 7.10106H171.209C171.209 7.10106 171.153 7.15745 171.153 7.21383V20.3511C171.153 21.1968 170.479 21.8734 169.636 21.8734C168.849 21.8734 168.175 21.1968 168.175 20.3511V7.21383C168.175 5.52234 169.524 4.16915 171.153 4.16915H176.997C179.975 4.16915 182.447 6.42447 182.447 9.24362C182.447 11.8936 180.256 14.2053 177.502 14.4308L182.222 19.2798C182.559 19.5617 182.728 20.0128 182.672 20.4074C182.672 20.8021 182.447 21.1968 182.166 21.4787C181.941 21.7043 181.548 21.817 181.211 21.817ZM222.51 21.817C219.925 21.817 217.958 21.084 216.554 19.6745C215.149 18.2649 214.419 16.1223 214.419 13.4723V5.52234C214.419 4.6766 215.093 4 215.879 4C216.722 4 217.397 4.6766 217.397 5.52234V13.4723C217.397 17.1936 219.026 18.8287 222.622 18.8287C226.274 18.8287 227.848 17.25 227.848 13.4723V5.52234C227.848 4.6766 228.522 4 229.309 4C230.095 4 230.77 4.6766 230.77 5.52234V13.4723C230.77 18.8287 227.848 21.817 222.566 21.817C222.566 21.817 222.566 21.817 222.51 21.817ZM251.784 21.817C250.941 21.817 250.267 21.1404 250.267 20.2947V7.10106C250.211 7.04468 250.211 7.10106 250.211 7.10106L246.727 12.9085C246.221 13.8106 245.21 14.3745 244.142 14.3745C243.075 14.3745 242.176 13.8106 241.558 12.9085L238.074 7.10106C238.074 7.04468 238.018 7.04468 238.018 7.04468V20.2947C238.018 21.1404 237.344 21.817 236.501 21.817C235.714 21.817 235.04 21.1404 235.04 20.2947V7.10106C235.04 5.40957 236.388 4.05638 238.018 4.05638C239.085 4.05638 240.041 4.62021 240.603 5.57872L244.086 11.3862C244.142 11.4426 244.142 11.4426 244.142 11.4426L244.199 11.3862L247.682 5.57872C248.244 4.62021 249.199 4.05638 250.267 4.05638C251.897 4.05638 253.245 5.40957 253.245 7.10106V20.3511C253.301 21.1404 252.627 21.817 251.784 21.817ZM208.463 21.817C207.676 21.817 207.002 21.1404 207.002 20.2947V5.57872C207.002 4.73298 207.676 4.05638 208.463 4.05638C209.305 4.05638 209.98 4.73298 209.98 5.57872V20.3511C209.98 21.1404 209.305 21.817 208.463 21.817ZM155.027 21.817C149.408 21.817 145.643 18.2649 145.643 12.9085C145.643 7.66489 149.52 4 155.027 4C160.646 4 164.41 7.55213 164.41 12.9085C164.467 18.2649 160.646 21.817 155.027 21.817ZM155.027 7.04468C150.981 7.04468 148.621 9.24362 148.621 12.9085C148.621 16.5734 151.037 18.7723 155.027 18.7723C159.072 18.7723 161.432 16.5734 161.432 12.9085C161.489 9.24362 159.072 7.04468 155.027 7.04468ZM135.417 21.817C129.798 21.817 126.033 18.2649 126.033 12.9085C126.033 7.66489 129.91 4 135.417 4C138.114 4 140.474 4.78936 142.16 6.36809C142.441 6.65 142.609 6.9883 142.665 7.38298C142.665 7.77766 142.553 8.17234 142.272 8.45425C141.991 8.73617 141.654 8.90532 141.261 8.9617C140.867 8.9617 140.474 8.84894 140.193 8.56702C139.069 7.55213 137.44 6.9883 135.417 6.9883C131.371 6.9883 129.011 9.18723 129.011 12.8521C129.011 16.517 131.428 18.716 135.417 18.716C137.384 18.716 139.069 18.1521 140.193 17.1372C140.474 16.8553 140.867 16.7426 141.261 16.7426C141.654 16.7426 141.991 16.9681 142.272 17.25C142.834 17.8702 142.778 18.8287 142.16 19.3926C140.474 20.9713 138.17 21.817 135.417 21.817ZM119.403 21.817C118.336 21.817 117.38 21.2532 116.818 20.3511L109.064 7.10106C109.064 7.04468 109.008 7.04468 109.008 7.04468L108.952 20.2947C108.952 21.1404 108.278 21.817 107.491 21.817C106.648 21.817 105.974 21.1404 105.974 20.2947V7.10106C105.974 5.40957 107.322 4.05638 108.952 4.05638C110.02 4.05638 110.975 4.62021 111.537 5.57872L119.291 18.8287C119.291 18.8287 119.291 18.8851 119.347 18.8851C119.403 18.8851 119.403 18.8851 119.403 18.8287V5.57872C119.403 4.73298 120.021 4.05638 120.864 4.05638C121.707 4.05638 122.381 4.73298 122.381 5.57872V18.7723C122.381 20.4638 121.033 21.817 119.403 21.817ZM92.8819 21.817C87.263 21.817 83.4984 18.2649 83.4984 12.9085C83.4984 7.66489 87.3754 4 92.8819 4C98.5008 4 102.265 7.55213 102.265 12.9085C102.265 18.2649 98.5008 21.817 92.8819 21.817ZM92.8819 7.04468C88.8363 7.04468 86.4764 9.24362 86.4764 12.9085C86.4764 16.5734 88.8925 18.7723 92.8819 18.7723C96.9275 18.7723 99.2875 16.5734 99.2875 12.9085C99.2875 9.24362 96.8713 7.04468 92.8819 7.04468ZM73.2158 21.817C67.5969 21.817 63.8323 18.2649 63.8323 12.9085C63.8323 7.66489 67.7093 4 73.2158 4C75.9129 4 78.2728 4.78936 79.9585 6.36809C80.2394 6.65 80.408 6.9883 80.4642 7.38298C80.4642 7.77766 80.3518 8.17234 80.0709 8.45425C79.7899 8.73617 79.4528 8.90532 79.0595 8.9617C78.6661 8.9617 78.2728 8.84894 77.9919 8.56702C76.8681 7.55213 75.2386 6.9883 73.2158 6.9883C69.1702 6.9883 66.8103 9.18723 66.8103 12.8521C66.8103 16.517 69.2264 18.716 73.2158 18.716C75.1824 18.716 76.8681 18.1521 77.9919 17.1372C78.2728 16.8553 78.6661 16.7426 79.0595 16.7426C79.4528 16.7426 79.7899 16.9681 80.0709 17.25C80.6328 17.8702 80.5766 18.8287 79.9585 19.3926C78.329 20.9713 75.9691 21.817 73.2158 21.817ZM193.797 21.7043C193.741 21.7043 193.685 21.7043 193.629 21.7043H189.414C187.785 21.7043 186.436 20.3511 186.436 18.6596V7.21383C186.436 5.52234 187.785 4.16915 189.414 4.16915H193.629C196.831 4.11277 199.248 4.90213 200.821 6.48085C202.282 7.94681 203.012 10.1457 203.012 12.9085C203.012 15.7277 202.282 17.8702 200.821 19.3362C199.304 20.9713 197 21.7043 193.797 21.7043ZM193.741 7.10106H193.685H189.471L189.414 7.15745V18.6032L189.471 18.6596H193.685C196.101 18.6596 197.787 18.2085 198.742 17.1936C199.641 16.2915 200.09 14.8255 200.09 12.8521C200.09 10.8787 199.641 9.46915 198.742 8.51064C197.787 7.60851 196.157 7.10106 193.741 7.10106Z" fill="black"/>
<path d="M50.2329 37.7202H40.8494C43.2093 34.6191 44.6702 30.7287 44.6702 26.5C44.6702 22.2713 43.2093 18.3808 40.8494 15.2798H50.2329C51.8062 18.7191 52.7052 22.4968 52.7052 26.5C52.7052 30.5032 51.8624 34.2808 50.2329 37.7202Z" fill="black"/>
<path d="M26.3526 37.6638C32.528 37.6638 37.5342 32.6404 37.5342 26.4436C37.5342 20.2468 32.528 15.2234 26.3526 15.2234C20.1772 15.2234 15.171 20.2468 15.171 26.4436C15.171 32.6404 20.1772 37.6638 26.3526 37.6638Z" fill="black"/>
<path d="M8.03501 26.5C8.03501 36.6489 16.2386 44.9372 26.3526 44.9372C29.0497 44.9372 31.6344 44.317 33.9381 43.2457V51.8723C31.522 52.6053 28.9935 53 26.3526 53C11.7997 53 0 41.1032 0 26.5C0 11.8404 11.7997 0 26.3526 0C28.9935 0 31.522 0.394681 33.9381 1.12766V9.75425C31.6344 8.68298 29.0497 8.06277 26.3526 8.06277C16.2386 8.06277 8.03501 16.2947 8.03501 26.5Z" fill="black"/>
</svg>
