<svg width="31" height="31" viewBox="0 0 31 31" fill="none" xmlns="http://www.w3.org/2000/svg">
<path d="M29.0198 21.7214H23.6613C25.0211 19.9506 25.84 17.7378 25.84 15.3273C25.84 12.9168 25.0185 10.6988 23.6561 8.92799H29.0172C29.9245 10.8704 30.4367 13.0391 30.4367 15.3273C30.4367 17.6156 29.9271 19.779 29.0198 21.7214ZM15.3857 21.7214C11.8628 21.7214 9.00812 18.8585 9.00812 15.3247C9.00812 11.7909 11.8628 8.92799 15.3857 8.92799C18.9086 8.92799 21.7634 11.7935 21.7634 15.3247C21.7634 18.8559 18.9086 21.7214 15.3857 21.7214ZM4.92624 15.3273C4.92624 21.1208 9.6061 25.8195 15.3831 25.8195C16.9327 25.8195 18.3991 25.4711 19.7224 24.8652V29.7849C18.3497 30.1984 16.8937 30.4246 15.3857 30.4246C7.07638 30.4246 0.339966 23.6665 0.339966 15.3273C0.339966 6.98817 7.07638 0.230011 15.3883 0.230011C16.8963 0.230011 18.3497 0.456236 19.725 0.869683V5.78944C18.4017 5.18357 16.9353 4.83513 15.3857 4.83513C9.6113 4.83513 4.92884 9.53126 4.92884 15.3273H4.92624Z" fill="black"/>
</svg>
