<svg id="uuid-b3c885f0-5668-46ed-9c2d-b5c1889e6563" width="258" height="53" data-name="Layer 1" xmlns="http://www.w3.org/2000/svg" viewBox="0 0 253.4 53">
  <path d="m181.2,21.8c-.4,0-.8-.2-1.1-.5l-7.1-7.3c-.4-.5-.6-1.1-.3-1.6.2-.6.7-.9,1.3-.9h3.1c1.3,0,2.5-1,2.5-2.2,0-1.1-1.2-2.1-2.5-2.1h-5.8l-.1.1v13.1c0,.8-.7,1.5-1.5,1.5s-1.5-.7-1.5-1.5V7.2c0-1.7,1.3-3,3-3h5.8c3,0,5.5,2.3,5.5,5.1,0,2.6-2.2,5-4.9,5.2l4.7,4.8c.3.3.5.7.4,1.1,0,.4-.2.8-.5,1.1-.3.2-.7.3-1,.3Zm41.3,0c-2.6,0-4.6-.7-6-2.1s-2.1-3.6-2.1-6.2v-8c0-.8.7-1.5,1.5-1.5s1.5.7,1.5,1.5v7.9c0,3.7,1.6,5.4,5.2,5.4s5.2-1.6,5.2-5.4v-7.9c0-.8.7-1.5,1.5-1.5s1.5.7,1.5,1.5v7.9c0,5.4-3,8.4-8.3,8.4q.1,0,0,0Zm29.3,0c-.8,0-1.5-.7-1.5-1.5V7.1c-.1-.1-.1,0-.1,0l-3.5,5.8c-.5.9-1.5,1.5-2.6,1.5s-2-.6-2.6-1.5l-3.5-5.8c.1-.1,0-.1,0-.1v13.3c0,.8-.7,1.5-1.5,1.5s-1.5-.7-1.5-1.5V7.1c0-1.7,1.3-3,3-3,1.1,0,2,.6,2.6,1.5l3.5,5.8.1.1.1-.1,3.5-5.8c.6-1,1.5-1.5,2.6-1.5,1.6,0,3,1.4,3,3v13.3c-.1.7-.8,1.4-1.6,1.4Zm-43.3,0c-.8,0-1.5-.7-1.5-1.5V5.6c0-.8.7-1.5,1.5-1.5s1.5.7,1.5,1.5v14.8c0,.7-.7,1.4-1.5,1.4Zm-53.5,0c-5.6,0-9.4-3.6-9.4-8.9s3.9-8.9,9.4-8.9,9.4,3.6,9.4,8.9c.1,5.4-3.8,8.9-9.4,8.9Zm0-14.8c-4,0-6.4,2.2-6.4,5.9s2.4,5.9,6.4,5.9,6.4-2.2,6.4-5.9c.1-3.7-2.3-5.9-6.4-5.9Zm-19.6,14.8c-5.6,0-9.4-3.6-9.4-8.9s3.9-8.9,9.4-8.9c2.7,0,5.1.8,6.7,2.4.3.3.4.6.5,1,0,.4-.1.8-.4,1.1-.3.3-.6.5-1,.5s-.8-.1-1.1-.4c-1.1-1-2.8-1.6-4.8-1.6-4,0-6.4,2.2-6.4,5.9s2.4,5.9,6.4,5.9c2,0,3.7-.6,4.8-1.6.3-.3.7-.4,1.1-.4s.7.2,1,.5c.6.6.5,1.6-.1,2.1-1.6,1.6-3.9,2.4-6.7,2.4Zm-16,0c-1.1,0-2-.6-2.6-1.5l-7.8-13.3c.1,0,0,0,0,0v13.3c0,.8-.7,1.5-1.5,1.5s-1.5-.7-1.5-1.5V7.1c0-1.7,1.3-3,3-3,1.1,0,2,.6,2.6,1.5l7.8,13.2s0,.1.1.1.1,0,.1-.1V5.6c0-.8.6-1.5,1.5-1.5.8,0,1.5.7,1.5,1.5v13.2c-.2,1.7-1.6,3-3.2,3Zm-26.5,0c-5.6,0-9.4-3.6-9.4-8.9s3.9-8.9,9.4-8.9,9.4,3.6,9.4,8.9-3.8,8.9-9.4,8.9Zm0-14.8c-4,0-6.4,2.2-6.4,5.9s2.4,5.9,6.4,5.9,6.4-2.2,6.4-5.9-2.4-5.9-6.4-5.9Zm-19.7,14.8c-5.6,0-9.4-3.6-9.4-8.9s3.9-8.9,9.4-8.9c2.7,0,5.1.8,6.7,2.4.3.3.4.6.5,1,0,.4-.1.8-.4,1.1s-.6.5-1,.5-.8-.1-1.1-.4c-1.1-1-2.8-1.6-4.8-1.6-4,0-6.4,2.2-6.4,5.9s2.4,5.9,6.4,5.9c2,0,3.7-.6,4.8-1.6.3-.3.7-.4,1.1-.4s.7.2,1,.5c.6.6.5,1.6-.1,2.1-1.6,1.6-3.9,2.4-6.7,2.4Zm120.6-.1h-4.4c-1.6,0-3-1.4-3-3V7.2c0-1.7,1.3-3,3-3h4.2c3.2-.1,5.6.7,7.2,2.3,1.5,1.5,2.2,3.7,2.2,6.4s-.7,5-2.2,6.4c-1.5,1.7-3.8,2.4-7,2.4Zm-.1-14.6h-4.3l-.1.1v11.4l.1.1h4.2c2.4,0,4.1-.5,5.1-1.5.9-.9,1.3-2.4,1.3-4.3s-.4-3.4-1.3-4.3c-.9-1-2.5-1.5-5-1.5Z"/>
  <path d="m50.2,37.7h-9.4c2.4-3.1,3.8-7,3.8-11.2s-1.5-8.1-3.8-11.2h9.4c1.6,3.4,2.5,7.2,2.5,11.2s-.8,7.8-2.5,11.2Z"/>
  <path d="m26.4,37.7c6.2,0,11.2-5,11.2-11.2s-5-11.2-11.2-11.2-11.2,5-11.2,11.2,5,11.2,11.2,11.2Z"/>
  <path d="m8,26.5c0,10.1,8.2,18.4,18.3,18.4,2.7,0,5.3-.6,7.6-1.7v8.6c-2.4.8-4.9,1.2-7.5,1.2C11.8,53,0,41.1,0,26.5S11.8,0,26.4,0c2.6,0,5.2.4,7.6,1.1v8.6c-2.3-1.1-4.9-1.7-7.6-1.7-10.2.1-18.4,8.3-18.4,18.5Z"/>
  <path d="m107.7,30.5h2.1v-2.7h-10.1v2.7h2.1l-4.8,13.3h-2.3v2.8h7.8v-2.8h-2.2l1.3-3.7h6.3l1.3,3.7h-2.3v2.8h7.8v-2.8h-2.1l-4.9-13.3Zm-3,.4l2.2,6.6h-4.5l2.3-6.6Z"/>
  <path d="m124.9,41.8c-.7,1.6-1.9,2.4-3.6,2.4-1.1,0-2-.4-2.6-1.2-.7-.8-1-1.9-1-3.1,0-.7.2-1.4.5-2.1.3-.6.7-1.1,1.3-1.5.5-.4,1.2-.5,1.8-.5.8,0,1.5.2,2.1.7s.9,1.1,1,2v.2h2.7v-5.4h-2.7v.7c-1-.7-2.1-1-3.4-1-1.2,0-2.3.3-3.3.9-1,.6-1.8,1.4-2.4,2.5s-.9,2.2-.9,3.5.3,2.5.8,3.6c.6,1.1,1.4,2,2.4,2.6s2.2.9,3.5.9c2.9,0,5.1-1.3,6.3-4l.1-.2-2.6-1.2v.2Z"/>
  <path d="m140,38.1c0-1.7-.4-3.1-1.3-3.9-.8-.8-2.2-1.2-3.9-1.2-1.3,0-2.5.3-3.4.8-1,.5-1.7,1.3-2.3,2.4l-.2.3,2.9.7.1-.2c.3-.5.6-.8,1-1s1-.3,1.6-.3c.9,0,1.5.2,1.9.6.4.4.6,1,.6,2v.9c-1-.6-2.1-.9-3.3-.9-.8,0-1.6.2-2.3.5-.8.4-1.4.9-1.9,1.5-.5.7-.7,1.4-.7,2.3,0,.8.2,1.5.6,2.2.4.6,1,1.2,1.7,1.6.7.4,1.5.6,2.3.6,1.4,0,2.7-.5,3.8-1.5v1.3h4.9v-2.7h-2.1v-6Zm-6.2,6.3c-.6,0-1.1-.2-1.5-.5-.4-.4-.6-.8-.6-1.3,0-.6.2-1,.6-1.4.4-.4,1-.6,1.6-.6,1,0,2,.4,3,1.2v1.2c-.9.9-2,1.4-3.1,1.4Z"/>
  <path d="m156.9,27.7h-5.5v2.7h2.5v4.2c-.6-.5-1.2-.9-1.8-1.2-.8-.3-1.6-.5-2.5-.5-1.2,0-2.3.3-3.3,1-1,.6-1.8,1.5-2.4,2.6-.6,1.1-.9,2.3-.9,3.5s.3,2.4.8,3.4,1.3,1.9,2.3,2.5,2.1.9,3.4.9c1.6,0,3.1-.6,4.4-1.7v1.5h5.3v-2.7h-2.3v-16.2Zm-6.8,16.4c-.7,0-1.4-.2-1.9-.5-.6-.4-1-.9-1.4-1.5-.3-.6-.5-1.3-.5-2.1,0-.7.2-1.4.5-2.1.3-.6.8-1.2,1.4-1.5.6-.4,1.2-.6,1.9-.6s1.4.2,2,.5c.6.4,1.1.9,1.4,1.5.3.6.5,1.3.5,2.1,0,.7-.2,1.5-.5,2.1s-.8,1.2-1.4,1.6c-.6.3-1.3.5-2,.5Z"/>
  <path d="m171.4,42.3c-.5.7-1,1.2-1.7,1.5s-1.4.5-2.2.5c-1.1,0-2-.3-2.8-1-.7-.6-1.1-1.4-1.3-2.5h10.7v-.3c0-1.5-.4-2.9-1-4s-1.4-2-2.5-2.7c-1-.6-2.3-.9-3.7-.9-1.3,0-2.5.3-3.5.9-1.1.6-1.9,1.4-2.5,2.5s-.9,2.3-.9,3.6.3,2.5.9,3.6c.6,1.1,1.5,1.9,2.6,2.5s2.4.9,3.8.9,2.7-.3,3.8-.9c1.2-.6,2.1-1.4,2.9-2.6l.2-.2-2.7-1.2-.1.3Zm-7.9-3.8c.2-.9.6-1.6,1.2-2.1.7-.6,1.4-.9,2.3-.9s1.8.3,2.5.9c.6.5,1.1,1.2,1.3,2.1h-7.3Z"/>
  <path d="m196,37.1c0-1.3-.3-2.3-1-3s-1.6-1-2.6-1c-1.4,0-3,.6-4.6,1.9-.6-1.2-1.7-1.9-3.1-1.9s-2.8.5-4.2,1.5v-1.4h-5.2v2.8h2.2v7.8h-2.3v2.7h7.6v-2.7h-2.3v-6.5c1.4-1,2.6-1.5,3.4-1.5.5,0,.8.1,1,.4.2.3.3.9.3,1.6v8.7h5.2v-2.7h-2.2v-6.5c.6-.5,1.2-.9,1.8-1.1,1.2-.5,2.1-.5,2.5-.1.2.2.3.5.4.8.1.3.1.8.1,1.3v8.4h5.2v-2.7h-2.2v-6.8Z"/>
  <polygon points="206.5 33.3 206.5 36.1 208.1 36.1 205.8 42.4 203.4 36.1 204.8 36.1 204.8 33.3 197.9 33.3 197.9 36.1 200.1 36.1 204.2 46.2 202.8 49.7 200.1 49.7 200.1 52.4 204.8 52.4 211.2 36.1 213.1 36.1 213.1 33.3 206.5 33.3"/>
</svg>