<svg width="167" height="31" viewBox="0 0 167 31" fill="none" xmlns="http://www.w3.org/2000/svg">
<path d="M29.0198 21.7214H23.6613C25.0211 19.9506 25.84 17.7378 25.84 15.3273C25.84 12.9168 25.0185 10.6988 23.6561 8.92799H29.0172C29.9245 10.8704 30.4367 13.0391 30.4367 15.3273C30.4367 17.6156 29.9271 19.779 29.0198 21.7214ZM15.3857 21.7214C11.8628 21.7214 9.00812 18.8585 9.00812 15.3247C9.00812 11.7909 11.8628 8.92799 15.3857 8.92799C18.9086 8.92799 21.7634 11.7935 21.7634 15.3247C21.7634 18.8559 18.9086 21.7214 15.3857 21.7214ZM4.92624 15.3273C4.92624 21.1208 9.6061 25.8195 15.3831 25.8195C16.9327 25.8195 18.3991 25.4711 19.7224 24.8652V29.7849C18.3497 30.1984 16.8937 30.4246 15.3857 30.4246C7.07638 30.4246 0.339966 23.6665 0.339966 15.3273C0.339966 6.98817 7.07638 0.230011 15.3883 0.230011C16.8963 0.230011 18.3497 0.456236 19.725 0.869683V5.78944C18.4017 5.18357 16.9353 4.83513 15.3857 4.83513C9.6113 4.83513 4.92884 9.53126 4.92884 15.3273H4.92624Z" fill="black"/>
<path d="M45.7015 18.7961C46.9521 18.7961 47.9687 18.289 48.5771 17.6285V21.3002C47.6983 21.7058 46.6661 21.9086 45.6339 21.9086C41.9135 21.9086 38.9183 18.9469 38.9183 15.3273C38.9183 11.7077 41.9135 8.74594 45.6339 8.74594C46.6661 8.74594 47.6983 8.96697 48.5771 9.35441V13.026C47.9687 12.3655 46.9521 11.8585 45.7015 11.8585C43.6892 11.8585 42.2332 13.3303 42.2332 15.3273C42.2332 17.3243 43.6892 18.7961 45.7015 18.7961ZM56.9826 8.74594C60.6537 8.74594 63.5786 11.7077 63.5786 15.3273C63.5786 18.9469 60.6511 21.9086 56.9826 21.9086C53.3141 21.9086 50.3866 18.9469 50.3866 15.3273C50.3866 11.7077 53.3297 8.74594 56.9826 8.74594ZM56.9826 11.8247C55.1731 11.8247 53.7015 13.2627 53.7015 15.3273C53.7015 17.3919 55.1731 18.8299 56.9826 18.8299C58.7922 18.8299 60.2637 17.3919 60.2637 15.3273C60.2637 13.2627 58.7922 11.8247 56.9826 11.8247ZM68.7545 8.94876L74.1675 16.3934V8.94876H77.3472V21.7058H74.5211L68.9209 14.1441V21.7058H65.7411V8.94876H68.7519H68.7545ZM86.4651 18.7961C87.7157 18.7961 88.7323 18.289 89.3407 17.6285V21.3002C88.4619 21.7058 87.4297 21.9086 86.3976 21.9086C82.6771 21.9086 79.6819 18.9469 79.6819 15.3273C79.6819 11.7077 82.6771 8.74594 86.3976 8.74594C87.4297 8.74594 88.4619 8.96697 89.3407 9.35441V13.026C88.7323 12.3655 87.7157 11.8585 86.4651 11.8585C84.4528 11.8585 82.9968 13.3303 82.9968 15.3273C82.9968 17.3243 84.4528 18.7961 86.4651 18.7961ZM97.7462 8.74594C101.417 8.74594 104.342 11.7077 104.342 15.3273C104.342 18.9469 101.415 21.9086 97.7462 21.9086C94.0777 21.9086 91.1502 18.9469 91.1502 15.3273C91.1502 11.7077 94.0933 8.74594 97.7462 8.74594ZM97.7462 11.8247C95.9367 11.8247 94.4651 13.2627 94.4651 15.3273C94.4651 17.3919 95.9367 18.8299 97.7462 18.8299C99.5558 18.8299 101.027 17.3919 101.027 15.3273C101.027 13.2627 99.5558 11.8247 97.7462 11.8247ZM109.958 17.1371V21.7058H106.677V8.94876H110.889C113.918 8.94876 115.998 10.4387 115.998 13.0442C115.998 14.7526 114.966 16.006 113.377 16.6482L117.438 21.7058H113.445L109.961 17.1371H109.958ZM109.958 14.6668H110.871C111.97 14.6668 112.631 14.0739 112.631 13.143C112.631 12.2121 111.97 11.6375 110.871 11.6375H109.958V14.6668ZM123.525 8.94876C127.177 8.94876 130.121 11.6895 130.121 15.3273C130.121 18.9651 127.177 21.7058 123.525 21.7058H118.907V8.94876H123.525ZM123.304 11.6739H122.222V18.9833H123.27C125.417 18.9833 126.806 17.2905 126.806 15.3299C126.806 13.3693 125.417 11.6765 123.304 11.6765V11.6739ZM135.77 21.7058H132.455V8.94876H135.77V21.7058ZM145.988 16.5806V8.95136H149.303V16.565C149.303 19.9662 146.986 21.9112 143.939 21.9112C140.892 21.9112 138.575 19.9662 138.575 16.565V8.95136H141.89V16.5806C141.89 18.1876 142.702 18.9833 143.937 18.9833C145.171 18.9833 145.983 18.1876 145.983 16.5806H145.988Z" fill="black"/>
<path d="M155.355 13.1795H155.259V21.7058H152.204V8.94879H157.071L159.482 16.1906L162.144 8.94879H166.66V21.7058H163.605V13.1795H163.509L160.433 21.7058H158.431L155.355 13.1795Z" fill="black"/>
</svg>
