<?xml version="1.0" encoding="UTF-8" standalone="no"?>
<!DOCTYPE svg PUBLIC "-//W3C//DTD SVG 1.1//EN"
 "http://www.w3.org/Graphics/SVG/1.1/DTD/svg11.dtd">
<!-- Generated by graphviz version 2.40.1 (20161225.0304)
 -->
<!-- Title: G Pages: 1 -->
<svg width="218pt" height="97pt"
 viewBox="0.00 0.00 218.00 97.00" xmlns="http://www.w3.org/2000/svg" xmlns:xlink="http://www.w3.org/1999/xlink">
<g id="graph0" class="graph" transform="scale(1 1) rotate(0) translate(4 93)">
<title>G</title>
<g id="clust1" class="cluster">
<title>cluster_0</title>
<polygon fill="transparent" stroke="#000000" points="8,-8 8,-81 202,-81 202,-8 8,-8"/>
<text text-anchor="middle" x="105" y="-67.4" font-family="'Lato,proxima-nova,Helvetica Neue,Arial,sans-serif'" font-size="12.00" fill="#000000">Module</text>
</g>
<!-- Crowdfunding -->
<g id="node1" class="node">
<title>Crowdfunding</title>
<polygon fill="none" stroke="#000000" points="188,-52 94,-52 94,-16 194,-16 194,-46 188,-52"/>
<polyline fill="none" stroke="#000000" points="188,-52 188,-46 "/>
<polyline fill="none" stroke="#000000" points="194,-46 188,-46 "/>
<text text-anchor="middle" x="144" y="-30.9" font-family="'Lato,proxima-nova,Helvetica Neue,Arial,sans-serif'" font-size="12.00" fill="#000000">Crowdfunding</text>
</g>
<!-- Escrow -->
<g id="node2" class="node">
<title>Escrow</title>
<polygon fill="none" stroke="#000000" points="69.5,-52 16.5,-52 16.5,-16 75.5,-16 75.5,-46 69.5,-52"/>
<polyline fill="none" stroke="#000000" points="69.5,-52 69.5,-46 "/>
<polyline fill="none" stroke="#000000" points="75.5,-46 69.5,-46 "/>
<text text-anchor="middle" x="46" y="-30.9" font-family="'Lato,proxima-nova,Helvetica Neue,Arial,sans-serif'" font-size="12.00" fill="#000000">Escrow</text>
</g>
</g>
</svg>
