<?xml version="1.0" encoding="UTF-8" standalone="no"?>
<!DOCTYPE svg PUBLIC "-//W3C//DTD SVG 1.1//EN"
 "http://www.w3.org/Graphics/SVG/1.1/DTD/svg11.dtd">
<!-- Generated by graphviz version 2.40.1 (20161225.0304)
 -->
<!-- Title: G Pages: 1 -->
<svg width="350pt" height="190pt"
 viewBox="0.00 0.00 350.00 190.00" xmlns="http://www.w3.org/2000/svg" xmlns:xlink="http://www.w3.org/1999/xlink">
<g id="graph0" class="graph" transform="scale(1 1) rotate(0) translate(4 186)">
<title>G</title>
<g id="clust1" class="cluster">
<title>cluster_0</title>
<polygon fill="transparent" stroke="#000000" points="72,-101 72,-174 266,-174 266,-101 72,-101"/>
<text text-anchor="middle" x="169" y="-160.4" font-family="'Lato,proxima-nova,Helvetica Neue,Arial,sans-serif'" font-size="12.00" fill="#000000">Module</text>
</g>
<g id="clust2" class="cluster">
<title>cluster_1</title>
<polygon fill="transparent" stroke="#000000" stroke-dasharray="1,5" points="8,-8 8,-81 334,-81 334,-8 8,-8"/>
<text text-anchor="middle" x="171" y="-15.4" font-family="'Lato,proxima-nova,Helvetica Neue,Arial,sans-serif'" font-size="12.00" fill="#000000">Instances</text>
</g>
<!-- Crowdfunding -->
<g id="node1" class="node">
<title>Crowdfunding</title>
<polygon fill="none" stroke="#000000" points="252,-145 158,-145 158,-109 258,-109 258,-139 252,-145"/>
<polyline fill="none" stroke="#000000" points="252,-145 252,-139 "/>
<polyline fill="none" stroke="#000000" points="258,-139 252,-139 "/>
<text text-anchor="middle" x="208" y="-123.9" font-family="'Lato,proxima-nova,Helvetica Neue,Arial,sans-serif'" font-size="12.00" fill="#000000">Crowdfunding</text>
</g>
<!-- Escrow -->
<g id="node2" class="node">
<title>Escrow</title>
<polygon fill="none" stroke="#000000" points="133.5,-145 80.5,-145 80.5,-109 139.5,-109 139.5,-139 133.5,-145"/>
<polyline fill="none" stroke="#000000" points="133.5,-145 133.5,-139 "/>
<polyline fill="none" stroke="#000000" points="139.5,-139 133.5,-139 "/>
<text text-anchor="middle" x="110" y="-123.9" font-family="'Lato,proxima-nova,Helvetica Neue,Arial,sans-serif'" font-size="12.00" fill="#000000">Escrow</text>
</g>
<!-- House -->
<g id="node3" class="node">
<title>House</title>
<path fill="none" stroke="#000000" d="M130,-73C130,-73 100,-73 100,-73 94,-73 88,-67 88,-61 88,-61 88,-49 88,-49 88,-43 94,-37 100,-37 100,-37 130,-37 130,-37 136,-37 142,-43 142,-49 142,-49 142,-61 142,-61 142,-67 136,-73 130,-73"/>
<text text-anchor="middle" x="115" y="-51.9" font-family="'Lato,proxima-nova,Helvetica Neue,Arial,sans-serif'" font-size="12.00" fill="#000000">House</text>
</g>
<!-- House&#45;&gt;Escrow -->
<g id="edge1" class="edge">
<title>House:n&#45;&gt;Escrow</title>
<path fill="none" stroke="#000000" d="M115,-73C115,-81.2485 114.4144,-90.1757 113.644,-98.351"/>
<polygon fill="#000000" stroke="#000000" points="110.1372,-98.2303 112.5586,-108.5447 117.0978,-98.9716 110.1372,-98.2303"/>
</g>
<!-- Car -->
<g id="node4" class="node">
<title>Car</title>
<path fill="none" stroke="#000000" d="M58,-73C58,-73 28,-73 28,-73 22,-73 16,-67 16,-61 16,-61 16,-49 16,-49 16,-43 22,-37 28,-37 28,-37 58,-37 58,-37 64,-37 70,-43 70,-49 70,-49 70,-61 70,-61 70,-67 64,-73 58,-73"/>
<text text-anchor="middle" x="43" y="-51.9" font-family="'Lato,proxima-nova,Helvetica Neue,Arial,sans-serif'" font-size="12.00" fill="#000000">Car</text>
</g>
<!-- Car&#45;&gt;Escrow -->
<g id="edge2" class="edge">
<title>Car:n&#45;&gt;Escrow</title>
<path fill="none" stroke="#000000" d="M43,-73C43,-90.2343 56.6051,-102.9015 71.5537,-111.6181"/>
<polygon fill="#000000" stroke="#000000" points="69.9406,-114.7243 80.4178,-116.2985 73.209,-108.5342 69.9406,-114.7243"/>
</g>
<!-- Gadget -->
<g id="node5" class="node">
<title>Gadget</title>
<path fill="none" stroke="#000000" d="M314,-73C314,-73 278,-73 278,-73 272,-73 266,-67 266,-61 266,-61 266,-49 266,-49 266,-43 272,-37 278,-37 278,-37 314,-37 314,-37 320,-37 326,-43 326,-49 326,-49 326,-61 326,-61 326,-67 320,-73 314,-73"/>
<text text-anchor="middle" x="296" y="-51.9" font-family="'Lato,proxima-nova,Helvetica Neue,Arial,sans-serif'" font-size="12.00" fill="#000000">Gadget</text>
</g>
<!-- Gadget&#45;&gt;Crowdfunding -->
<g id="edge3" class="edge">
<title>Gadget:n&#45;&gt;Crowdfunding</title>
<path fill="none" stroke="#000000" d="M296,-73C296,-90.3815 283.374,-102.3431 267.687,-110.4969"/>
<polygon fill="#000000" stroke="#000000" points="265.7949,-107.5145 258.1694,-114.8699 268.7174,-113.8752 265.7949,-107.5145"/>
</g>
<!-- Boardgame -->
<g id="node6" class="node">
<title>Boardgame</title>
<path fill="none" stroke="#000000" d="M235.5,-73C235.5,-73 172.5,-73 172.5,-73 166.5,-73 160.5,-67 160.5,-61 160.5,-61 160.5,-49 160.5,-49 160.5,-43 166.5,-37 172.5,-37 172.5,-37 235.5,-37 235.5,-37 241.5,-37 247.5,-43 247.5,-49 247.5,-49 247.5,-61 247.5,-61 247.5,-67 241.5,-73 235.5,-73"/>
<text text-anchor="middle" x="204" y="-51.9" font-family="'Lato,proxima-nova,Helvetica Neue,Arial,sans-serif'" font-size="12.00" fill="#000000">Boardgame</text>
</g>
<!-- Boardgame&#45;&gt;Crowdfunding -->
<g id="edge4" class="edge">
<title>Boardgame:n&#45;&gt;Crowdfunding</title>
<path fill="none" stroke="#000000" d="M204,-73C204,-81.2359 204.4685,-90.1591 205.0848,-98.3346"/>
<polygon fill="#000000" stroke="#000000" points="201.6171,-98.8638 205.9531,-108.5307 208.5918,-98.2697 201.6171,-98.8638"/>
</g>
</g>
</svg>
