<svg width="607" height="76" viewBox="0 0 607 76" fill="none" xmlns="http://www.w3.org/2000/svg">
<path d="M0 37.6197V37.4814C0 23.2763 10.7471 11.6233 26.1507 11.6233C35.5409 11.6233 41.3385 14.7594 45.918 19.3407L38.9023 27.4118C34.955 23.9066 31.1619 21.7697 26.0736 21.7697C17.624 21.7697 11.5335 28.7646 11.5335 37.343V37.4814C11.5335 46.0597 17.4852 53.193 26.0736 53.193C31.8095 53.193 35.3097 50.9792 39.2569 47.3357L46.2726 54.4075C41.1072 59.9112 35.4484 63.3395 25.719 63.3395C10.963 63.3395 0 51.9785 0 37.6197Z" fill="#1B2735"/>
<path d="M128.379 12.4857H138.54L162.039 43.2633V12.4857H172.925V62.4801H163.55L139.265 30.7032V62.4801H128.379V12.4857Z" fill="#1B2735"/>
<path d="M189.654 37.6197V37.4814C189.654 23.2609 200.401 11.6233 215.805 11.6233C225.195 11.6233 230.993 14.7594 235.572 19.3407L228.557 27.4118C224.609 23.9066 220.816 21.7697 215.728 21.7697C207.278 21.7697 201.188 28.7646 201.188 37.343V37.4814C201.188 46.0597 207.14 53.193 215.728 53.193C221.464 53.193 224.964 50.9792 228.911 47.3357L235.927 54.4075C230.762 59.9112 225.103 63.3395 215.373 63.3395C200.617 63.3395 189.654 51.9785 189.654 37.6351" fill="#1B2735"/>
<path d="M364.662 36.7757C370.105 36.7757 373.112 33.9931 373.112 29.7039V29.5656C373.112 24.7844 369.889 22.4169 364.446 22.4169H353.483V36.7757H364.662ZM342.443 12.4857H365.372C371.74 12.4857 376.612 14.1921 379.989 17.5589C382.857 20.4184 384.291 24.2002 384.291 28.9814V29.1197C384.291 37.1908 379.927 42.264 373.544 44.6161L385.786 62.4647H372.896L362.149 46.4609H353.483V62.4647H342.459V12.4857H342.443Z" fill="#1B2735"/>
<path d="M412.184 22.4169V52.5488H420.711C429.669 52.5488 435.821 46.4763 435.821 37.6212V37.4829C435.821 28.6278 429.654 22.4169 420.711 22.4169H412.184ZM401.159 12.4857H420.711C436.469 12.4857 447.355 23.2778 447.355 37.3445V37.4829C447.355 51.5495 436.469 62.4801 420.711 62.4801H401.159V12.4857Z" fill="#1B2735"/>
<path d="M475.617 12.4857H464.593V62.4801H475.617V12.4857Z" fill="#1B2735"/>
<path d="M494.288 41.0495V12.4857H505.313V40.7728C505.313 48.9822 509.322 53.133 516.137 53.133C522.952 53.133 526.961 49.1359 526.961 41.1417V12.4857H537.986V40.6959C537.986 55.8387 529.459 63.2641 515.998 63.2641C502.537 63.2641 494.288 55.8387 494.288 41.0495Z" fill="#1B2735"/>
<path d="M556.148 12.4857H568.037L581.22 33.6241L594.388 12.4857H606.291V62.4801H595.328V29.8423L581.22 51.196H580.927L566.957 30.0575V62.4801H556.148V12.4857Z" fill="#1B2735"/>
<path d="M260.335 37.7263C260.335 52.2081 272.177 63.938 286.81 63.938C290.726 63.938 294.442 63.0617 297.788 61.5551V73.8539C294.319 74.8839 290.634 75.4527 286.81 75.4527C265.778 75.4527 248.725 58.5727 248.725 37.7263C248.725 16.88 265.778 -4.57764e-05 286.825 -4.57764e-05C290.649 -4.57764e-05 294.319 0.568771 297.804 1.59879V13.8975C294.458 12.3756 290.742 11.5146 286.825 11.5146C272.208 11.5146 260.351 23.2446 260.351 37.7263H260.335ZM286.81 53.6993C277.897 53.6993 270.666 46.5507 270.666 37.711C270.666 28.8712 277.897 21.7226 286.81 21.7226C295.722 21.7226 302.953 28.8866 302.953 37.711C302.953 46.5353 295.722 53.6993 286.81 53.6993ZM321.333 53.6993H307.764C311.203 49.2718 313.284 43.7527 313.284 37.7263C313.284 31.7 311.203 26.1655 307.749 21.738H321.318C323.615 26.596 324.91 32.0074 324.91 37.7263C324.91 43.4452 323.615 48.8567 321.318 53.6993" fill="#1B2735"/>
<path d="M85.052 53.7442C76.0781 53.7442 68.8003 46.5033 68.8003 37.5406C68.8003 28.5779 76.0781 21.3524 85.052 21.3524C94.0259 21.3524 101.304 28.5933 101.304 37.5406C101.304 46.4879 94.0259 53.7442 85.052 53.7442ZM85.052 11.8362C70.8047 11.8362 59.2559 23.3509 59.2559 37.556C59.2559 51.761 70.8047 63.2757 85.052 63.2757C99.2992 63.2757 110.848 51.761 110.848 37.556C110.848 23.3509 99.2992 11.8362 85.052 11.8362Z" fill="#1B2735"/>
<path d="M85.0499 21.5056C76.1685 21.5056 68.9524 28.7004 68.9524 37.5401C68.9524 46.3798 76.1685 53.5899 85.0499 53.5899C93.9313 53.5899 101.147 46.3952 101.147 37.5401C101.147 28.685 93.9313 21.5056 85.0499 21.5056ZM85.0499 53.8974C75.9989 53.8974 68.644 46.5643 68.644 37.5401C68.644 28.5159 75.9989 21.1981 85.0499 21.1981C94.1009 21.1981 101.456 28.5313 101.456 37.5401C101.456 46.5489 94.1009 53.8974 85.0499 53.8974ZM85.0499 11.9895C70.9106 11.9895 59.408 23.458 59.408 37.5555C59.408 51.6529 70.9106 63.1215 85.0499 63.1215C99.1892 63.1215 110.692 51.6529 110.692 37.5555C110.692 23.458 99.1892 11.9895 85.0499 11.9895ZM85.0499 63.4136C70.741 63.4136 59.0996 51.8066 59.0996 37.5401C59.0996 23.2735 70.741 11.6666 85.0499 11.6666C99.3588 11.6666 111 23.2735 111 37.5401C111 51.8066 99.3588 63.4136 85.0499 63.4136Z" fill="#1B2735"/>
</svg>
