<?xml version="1.0" encoding="UTF-8" standalone="no"?>
<!DOCTYPE svg PUBLIC "-//W3C//DTD SVG 1.1//EN"
 "http://www.w3.org/Graphics/SVG/1.1/DTD/svg11.dtd">
<!-- Generated by graphviz version 2.43.0 (0)
 -->
<!-- Title: G Pages: 1 -->
<svg width="382pt" height="188pt"
 viewBox="0.00 0.00 381.67 188.00" xmlns="http://www.w3.org/2000/svg" xmlns:xlink="http://www.w3.org/1999/xlink">
<g id="graph0" class="graph" transform="scale(1 1) rotate(0) translate(4 184)">
<title>G</title>
<!-- or1 -->
<g id="node1" class="node">
<title>or1</title>
<ellipse fill="none" stroke="transparent" cx="224.33" cy="-162" rx="27" ry="18"/>
<text text-anchor="middle" x="224.33" y="-158.9" font-family="'Lato,proxima-nova,Helvetica Neue,Arial,sans-serif'" font-size="12.00">Or</text>
</g>
<!-- and1 -->
<g id="node2" class="node">
<title>and1</title>
<ellipse fill="none" stroke="transparent" cx="160.33" cy="-90" rx="27" ry="18"/>
<text text-anchor="middle" x="160.33" y="-86.9" font-family="'Lato,proxima-nova,Helvetica Neue,Arial,sans-serif'" font-size="12.00">And</text>
</g>
<!-- or1&#45;&gt;and1 -->
<g id="edge1" class="edge">
<title>or1&#45;&gt;and1</title>
<path fill="none" stroke="black" d="M210.76,-146.15C202.02,-136.6 190.5,-123.99 180.68,-113.25"/>
<polygon fill="black" stroke="black" points="183.22,-110.84 173.89,-105.82 178.05,-115.57 183.22,-110.84"/>
</g>
<!-- transC -->
<g id="node5" class="node">
<title>transC</title>
<ellipse fill="none" stroke="transparent" cx="289.33" cy="-90" rx="84.17" ry="18"/>
<text text-anchor="middle" x="289.33" y="-86.9" font-family="'Lato,proxima-nova,Helvetica Neue,Arial,sans-serif'" font-size="12.00">Transfer z to Charlie</text>
</g>
<!-- or1&#45;&gt;transC -->
<g id="edge4" class="edge">
<title>or1&#45;&gt;transC</title>
<path fill="none" stroke="black" d="M238.12,-146.15C246.43,-137.2 257.23,-125.58 266.76,-115.31"/>
<polygon fill="black" stroke="black" points="269.5,-117.5 273.74,-107.79 264.37,-112.74 269.5,-117.5"/>
</g>
<!-- transA -->
<g id="node3" class="node">
<title>transA</title>
<ellipse fill="none" stroke="transparent" cx="76.33" cy="-18" rx="76.17" ry="18"/>
<text text-anchor="middle" x="76.33" y="-14.9" font-family="'Lato,proxima-nova,Helvetica Neue,Arial,sans-serif'" font-size="12.00">Transfer x to Alice</text>
</g>
<!-- and1&#45;&gt;transA -->
<g id="edge2" class="edge">
<title>and1&#45;&gt;transA</title>
<path fill="none" stroke="black" d="M144.14,-75.5C132.77,-66.03 117.28,-53.12 103.97,-42.03"/>
<polygon fill="black" stroke="black" points="105.95,-39.12 96.03,-35.41 101.47,-44.5 105.95,-39.12"/>
</g>
<!-- transB -->
<g id="node4" class="node">
<title>transB</title>
<ellipse fill="none" stroke="transparent" cx="244.33" cy="-18" rx="73.01" ry="18"/>
<text text-anchor="middle" x="244.33" y="-14.9" font-family="'Lato,proxima-nova,Helvetica Neue,Arial,sans-serif'" font-size="12.00">Transfer y to Bob</text>
</g>
<!-- and1&#45;&gt;transB -->
<g id="edge3" class="edge">
<title>and1&#45;&gt;transB</title>
<path fill="none" stroke="black" d="M176.53,-75.5C187.9,-66.03 203.39,-53.12 216.69,-42.03"/>
<polygon fill="black" stroke="black" points="219.2,-44.5 224.64,-35.41 214.72,-39.12 219.2,-44.5"/>
</g>
</g>
</svg>
