<svg width="262" height="54" viewBox="0 0 262 54" fill="none" xmlns="http://www.w3.org/2000/svg">
<path d="M101.748 53V49.9238L104.49 49.3965V31.3613H99.832L99.5508 34.4199H95.666V27.4062H118.5V34.4199H114.598L114.316 31.3613H109.623V49.3965L112.383 49.9238V53H101.748ZM128.115 53.3691C126.287 53.3691 124.693 52.9707 123.334 52.1738C121.986 51.3652 120.938 50.2578 120.188 48.8516C119.449 47.4453 119.08 45.8398 119.08 44.0352V43.332C119.08 41.4453 119.432 39.7754 120.135 38.3223C120.838 36.8574 121.828 35.709 123.105 34.877C124.395 34.0332 125.912 33.6172 127.658 33.6289C130.225 33.6289 132.188 34.3848 133.547 35.8965C134.906 37.3965 135.586 39.5059 135.586 42.2246V45.0195H124.406L124.371 45.125C124.465 46.3789 124.881 47.4102 125.619 48.2188C126.357 49.0273 127.406 49.4316 128.766 49.4316C129.703 49.4316 130.576 49.3145 131.385 49.0801C132.205 48.834 133.002 48.4766 133.775 48.0078L135.164 51.1719C134.379 51.8047 133.389 52.332 132.193 52.7539C131.01 53.1641 129.65 53.3691 128.115 53.3691ZM124.441 41.627H130.787V41.1699C130.787 40.0215 130.547 39.1133 130.066 38.4453C129.598 37.7656 128.824 37.4258 127.746 37.4258C126.715 37.4258 125.93 37.8184 125.391 38.6035C124.852 39.377 124.518 40.3555 124.389 41.5391L124.441 41.627ZM146.115 53.3691C144.697 53.3691 143.373 53.2344 142.143 52.9648C140.924 52.6953 139.752 52.3086 138.627 51.8047L138.574 46.4258H142.143L142.828 49.168C143.227 49.3672 143.66 49.5254 144.129 49.6426C144.609 49.7598 145.154 49.8184 145.764 49.8184C146.912 49.8184 147.721 49.6309 148.189 49.2559C148.658 48.8809 148.893 48.4121 148.893 47.8496C148.893 47.3223 148.641 46.8594 148.137 46.4609C147.633 46.0508 146.643 45.6934 145.166 45.3887C142.904 44.9199 141.24 44.1934 140.174 43.209C139.119 42.2246 138.592 40.9648 138.592 39.4297C138.592 38.3867 138.855 37.4258 139.383 36.5469C139.922 35.668 140.736 34.9707 141.826 34.4551C142.928 33.9277 144.334 33.6641 146.045 33.6641C147.475 33.6641 148.781 33.8047 149.965 34.0859C151.16 34.3555 152.162 34.7129 152.971 35.1582L153.023 40.3613H149.473L148.928 37.8652C148.248 37.3965 147.393 37.1621 146.361 37.1621C145.471 37.1621 144.779 37.3496 144.287 37.7246C143.807 38.0879 143.566 38.5508 143.566 39.1133C143.566 39.6055 143.777 40.0508 144.199 40.4492C144.633 40.8359 145.576 41.1934 147.029 41.5215C149.385 42.0605 151.102 42.7812 152.18 43.6836C153.258 44.5742 153.797 45.8281 153.797 47.4453C153.797 49.2148 153.152 50.6445 151.863 51.7344C150.586 52.8242 148.67 53.3691 146.115 53.3691ZM163.605 53.3691C161.836 53.3691 160.471 52.8828 159.51 51.9102C158.561 50.9375 158.086 49.3965 158.086 47.2871V37.584H155.467V33.9805H158.086V29.3223H163.201V33.9805H166.699V37.584H163.201V47.2695C163.201 48.0078 163.354 48.5352 163.658 48.8516C163.975 49.168 164.402 49.3262 164.941 49.3262C165.223 49.3262 165.527 49.3086 165.855 49.2734C166.184 49.2266 166.465 49.1797 166.699 49.1328L167.139 52.8418C166.623 52.9941 166.055 53.1172 165.434 53.2109C164.812 53.3164 164.203 53.3691 163.605 53.3691ZM169.336 53V49.9238L171.797 49.3965V37.6016L169.072 37.0742V33.9805H176.578L176.807 36.7051C177.439 35.7324 178.219 34.9766 179.145 34.4375C180.082 33.8984 181.148 33.6289 182.344 33.6289C184.219 33.6289 185.689 34.2324 186.756 35.4395C187.834 36.6465 188.373 38.5391 188.373 41.1172V49.3965L190.834 49.9238V53H181.025V49.9238L183.223 49.3965V41.1348C183.223 39.8574 182.965 38.9551 182.449 38.4277C181.945 37.8887 181.201 37.6191 180.217 37.6191C178.787 37.6191 177.691 38.2168 176.93 39.4121V49.3965L179.004 49.9238V53H169.336ZM201.451 53.3691C199.623 53.3691 198.029 52.9707 196.67 52.1738C195.322 51.3652 194.273 50.2578 193.523 48.8516C192.785 47.4453 192.416 45.8398 192.416 44.0352V43.332C192.416 41.4453 192.768 39.7754 193.471 38.3223C194.174 36.8574 195.164 35.709 196.441 34.877C197.73 34.0332 199.248 33.6172 200.994 33.6289C203.561 33.6289 205.523 34.3848 206.883 35.8965C208.242 37.3965 208.922 39.5059 208.922 42.2246V45.0195H197.742L197.707 45.125C197.801 46.3789 198.217 47.4102 198.955 48.2188C199.693 49.0273 200.742 49.4316 202.102 49.4316C203.039 49.4316 203.912 49.3145 204.721 49.0801C205.541 48.834 206.338 48.4766 207.111 48.0078L208.5 51.1719C207.715 51.8047 206.725 52.332 205.529 52.7539C204.346 53.1641 202.986 53.3691 201.451 53.3691ZM197.777 41.627H204.123V41.1699C204.123 40.0215 203.883 39.1133 203.402 38.4453C202.934 37.7656 202.16 37.4258 201.082 37.4258C200.051 37.4258 199.266 37.8184 198.727 38.6035C198.188 39.377 197.854 40.3555 197.725 41.5391L197.777 41.627ZM218.766 53.3691C216.996 53.3691 215.631 52.8828 214.67 51.9102C213.721 50.9375 213.246 49.3965 213.246 47.2871V37.584H210.627V33.9805H213.246V29.3223H218.361V33.9805H221.859V37.584H218.361V47.2695C218.361 48.0078 218.514 48.5352 218.818 48.8516C219.135 49.168 219.562 49.3262 220.102 49.3262C220.383 49.3262 220.688 49.3086 221.016 49.2734C221.344 49.2266 221.625 49.1797 221.859 49.1328L222.299 52.8418C221.783 52.9941 221.215 53.1172 220.594 53.2109C219.973 53.3164 219.363 53.3691 218.766 53.3691Z" fill="white"/>
<path d="M181.211 17.817C180.818 17.817 180.424 17.6479 180.143 17.366L172.951 9.97979C172.502 9.52872 172.389 8.90851 172.67 8.34468C172.895 7.78085 173.401 7.44255 174.019 7.44255H177.109C178.458 7.44255 179.581 6.42766 179.581 5.24362C179.581 4.11596 178.401 3.10106 177.053 3.10106H171.209C171.209 3.10106 171.153 3.15745 171.153 3.21383V16.3511C171.153 17.1968 170.479 17.8734 169.636 17.8734C168.849 17.8734 168.175 17.1968 168.175 16.3511V3.21383C168.175 1.52234 169.524 0.169149 171.153 0.169149H176.997C179.975 0.169149 182.447 2.42447 182.447 5.24362C182.447 7.89362 180.256 10.2053 177.502 10.4308L182.222 15.2798C182.559 15.5617 182.728 16.0128 182.672 16.4074C182.672 16.8021 182.447 17.1968 182.166 17.4787C181.941 17.7043 181.548 17.817 181.211 17.817ZM222.51 17.817C219.925 17.817 217.958 17.084 216.554 15.6745C215.149 14.2649 214.419 12.1223 214.419 9.47234V1.52234C214.419 0.676596 215.093 0 215.879 0C216.722 0 217.397 0.676596 217.397 1.52234V9.47234C217.397 13.1936 219.026 14.8287 222.622 14.8287C226.274 14.8287 227.848 13.25 227.848 9.47234V1.52234C227.848 0.676596 228.522 0 229.309 0C230.095 0 230.77 0.676596 230.77 1.52234V9.47234C230.77 14.8287 227.848 17.817 222.566 17.817C222.566 17.817 222.566 17.817 222.51 17.817ZM251.784 17.817C250.941 17.817 250.267 17.1404 250.267 16.2947V3.10106C250.211 3.04468 250.211 3.10106 250.211 3.10106L246.727 8.90851C246.221 9.81064 245.21 10.3745 244.142 10.3745C243.075 10.3745 242.176 9.81064 241.558 8.90851L238.074 3.10106C238.074 3.04468 238.018 3.04468 238.018 3.04468V16.2947C238.018 17.1404 237.344 17.817 236.501 17.817C235.714 17.817 235.04 17.1404 235.04 16.2947V3.10106C235.04 1.40957 236.388 0.0563821 238.018 0.0563821C239.085 0.0563821 240.041 0.620212 240.603 1.57872L244.086 7.38617C244.142 7.44255 244.142 7.44255 244.142 7.44255L244.199 7.38617L247.682 1.57872C248.244 0.620212 249.199 0.0563821 250.267 0.0563821C251.897 0.0563821 253.245 1.40957 253.245 3.10106V16.3511C253.301 17.1404 252.627 17.817 251.784 17.817ZM208.463 17.817C207.676 17.817 207.002 17.1404 207.002 16.2947V1.57872C207.002 0.732978 207.676 0.0563821 208.463 0.0563821C209.305 0.0563821 209.98 0.732978 209.98 1.57872V16.3511C209.98 17.1404 209.305 17.817 208.463 17.817ZM155.027 17.817C149.408 17.817 145.643 14.2649 145.643 8.90851C145.643 3.66489 149.52 0 155.027 0C160.646 0 164.41 3.55213 164.41 8.90851C164.467 14.2649 160.646 17.817 155.027 17.817ZM155.027 3.04468C150.981 3.04468 148.621 5.24362 148.621 8.90851C148.621 12.5734 151.037 14.7723 155.027 14.7723C159.072 14.7723 161.432 12.5734 161.432 8.90851C161.489 5.24362 159.072 3.04468 155.027 3.04468ZM135.417 17.817C129.798 17.817 126.033 14.2649 126.033 8.90851C126.033 3.66489 129.91 0 135.417 0C138.114 0 140.474 0.789362 142.16 2.36809C142.441 2.65 142.609 2.9883 142.665 3.38298C142.665 3.77766 142.553 4.17234 142.272 4.45425C141.991 4.73617 141.654 4.90532 141.261 4.9617C140.867 4.9617 140.474 4.84894 140.193 4.56702C139.069 3.55213 137.44 2.9883 135.417 2.9883C131.371 2.9883 129.011 5.18723 129.011 8.85213C129.011 12.517 131.428 14.716 135.417 14.716C137.384 14.716 139.069 14.1521 140.193 13.1372C140.474 12.8553 140.867 12.7426 141.261 12.7426C141.654 12.7426 141.991 12.9681 142.272 13.25C142.834 13.8702 142.778 14.8287 142.16 15.3926C140.474 16.9713 138.17 17.817 135.417 17.817ZM119.403 17.817C118.336 17.817 117.38 17.2532 116.818 16.3511L109.064 3.10106C109.064 3.04468 109.008 3.04468 109.008 3.04468L108.952 16.2947C108.952 17.1404 108.278 17.817 107.491 17.817C106.648 17.817 105.974 17.1404 105.974 16.2947V3.10106C105.974 1.40957 107.322 0.0563821 108.952 0.0563821C110.02 0.0563821 110.975 0.620212 111.537 1.57872L119.291 14.8287C119.291 14.8287 119.291 14.8851 119.347 14.8851C119.403 14.8851 119.403 14.8851 119.403 14.8287V1.57872C119.403 0.732978 120.021 0.0563821 120.864 0.0563821C121.707 0.0563821 122.381 0.732978 122.381 1.57872V14.7723C122.381 16.4638 121.033 17.817 119.403 17.817ZM92.8819 17.817C87.263 17.817 83.4984 14.2649 83.4984 8.90851C83.4984 3.66489 87.3754 0 92.8819 0C98.5008 0 102.265 3.55213 102.265 8.90851C102.265 14.2649 98.5008 17.817 92.8819 17.817ZM92.8819 3.04468C88.8363 3.04468 86.4764 5.24362 86.4764 8.90851C86.4764 12.5734 88.8925 14.7723 92.8819 14.7723C96.9275 14.7723 99.2875 12.5734 99.2875 8.90851C99.2875 5.24362 96.8713 3.04468 92.8819 3.04468ZM73.2158 17.817C67.5969 17.817 63.8323 14.2649 63.8323 8.90851C63.8323 3.66489 67.7093 0 73.2158 0C75.9129 0 78.2728 0.789362 79.9585 2.36809C80.2394 2.65 80.408 2.9883 80.4642 3.38298C80.4642 3.77766 80.3518 4.17234 80.0709 4.45425C79.7899 4.73617 79.4528 4.90532 79.0595 4.9617C78.6661 4.9617 78.2728 4.84894 77.9919 4.56702C76.8681 3.55213 75.2386 2.9883 73.2158 2.9883C69.1702 2.9883 66.8103 5.18723 66.8103 8.85213C66.8103 12.517 69.2264 14.716 73.2158 14.716C75.1824 14.716 76.8681 14.1521 77.9919 13.1372C78.2728 12.8553 78.6661 12.7426 79.0595 12.7426C79.4528 12.7426 79.7899 12.9681 80.0709 13.25C80.6328 13.8702 80.5766 14.8287 79.9585 15.3926C78.329 16.9713 75.9691 17.817 73.2158 17.817ZM193.797 17.7043C193.741 17.7043 193.685 17.7043 193.629 17.7043H189.414C187.785 17.7043 186.436 16.3511 186.436 14.6596V3.21383C186.436 1.52234 187.785 0.169149 189.414 0.169149H193.629C196.831 0.112766 199.248 0.902126 200.821 2.48085C202.282 3.94681 203.012 6.14574 203.012 8.90851C203.012 11.7277 202.282 13.8702 200.821 15.3362C199.304 16.9713 197 17.7043 193.797 17.7043ZM193.741 3.10106H193.685H189.471L189.414 3.15745V14.6032L189.471 14.6596H193.685C196.101 14.6596 197.787 14.2085 198.742 13.1936C199.641 12.2915 200.09 10.8255 200.09 8.85213C200.09 6.87872 199.641 5.46915 198.742 4.51064C197.787 3.60851 196.157 3.10106 193.741 3.10106Z" fill="white"/>
<path d="M50.2329 37.7197H40.8494C43.2093 34.6187 44.6702 30.7282 44.6702 26.4995C44.6702 22.2708 43.2093 18.3804 40.8494 15.2793H50.2329C51.8062 18.7187 52.7052 22.4963 52.7052 26.4995C52.7052 30.5027 51.8624 34.2804 50.2329 37.7197Z" fill="white"/>
<path d="M26.3526 37.6641C32.528 37.6641 37.5342 32.6406 37.5342 26.4438C37.5342 20.2471 32.528 15.2236 26.3526 15.2236C20.1772 15.2236 15.171 20.2471 15.171 26.4438C15.171 32.6406 20.1772 37.6641 26.3526 37.6641Z" fill="white"/>
<path d="M8.03501 26.5C8.03501 36.6489 16.2386 44.9372 26.3526 44.9372C29.0497 44.9372 31.6344 44.317 33.9381 43.2457V51.8723C31.522 52.6053 28.9935 53 26.3526 53C11.7997 53 0 41.1032 0 26.5C0 11.8404 11.7997 0 26.3526 0C28.9935 0 31.522 0.394681 33.9381 1.12766V9.75425C31.6344 8.68298 29.0497 8.06277 26.3526 8.06277C16.2386 8.06277 8.03501 16.2947 8.03501 26.5Z" fill="white"/>
</svg>
