<?xml version="1.0" encoding="UTF-8" standalone="no"?>
<!DOCTYPE svg PUBLIC "-//W3C//DTD SVG 1.1//EN"
 "http://www.w3.org/Graphics/SVG/1.1/DTD/svg11.dtd">
<!-- Generated by graphviz version 2.43.0 (0)
 -->
<!-- Title: G Pages: 1 -->
<svg width="350pt" height="188pt"
 viewBox="0.00 0.00 350.28 188.00" xmlns="http://www.w3.org/2000/svg" xmlns:xlink="http://www.w3.org/1999/xlink">
<g id="graph0" class="graph" transform="scale(1 1) rotate(0) translate(4 184)">
<title>G</title>
<!-- or1 -->
<g id="node1" class="node">
<title>or1</title>
<ellipse fill="none" stroke="transparent" cx="204.95" cy="-162" rx="27" ry="18"/>
<text text-anchor="middle" x="204.95" y="-158.9" font-family="'Lato,proxima-nova,Helvetica Neue,Arial,sans-serif'" font-size="12.00">Or</text>
</g>
<!-- and1 -->
<g id="node2" class="node">
<title>and1</title>
<ellipse fill="none" stroke="transparent" cx="144.95" cy="-90" rx="27" ry="18"/>
<text text-anchor="middle" x="144.95" y="-86.9" font-family="'Lato,proxima-nova,Helvetica Neue,Arial,sans-serif'" font-size="12.00">And</text>
</g>
<!-- or1&#45;&gt;and1 -->
<g id="edge1" class="edge">
<title>or1&#45;&gt;and1</title>
<path fill="none" stroke="black" d="M191.93,-145.81C183.91,-136.45 173.47,-124.28 164.48,-113.79"/>
<polygon fill="black" stroke="black" points="167.1,-111.47 157.94,-106.16 161.79,-116.03 167.1,-111.47"/>
</g>
<!-- transC -->
<g id="node5" class="node">
<title>transC</title>
<ellipse fill="none" stroke="transparent" cx="265.95" cy="-90" rx="76.17" ry="18"/>
<text text-anchor="middle" x="265.95" y="-86.9" font-family="'Lato,proxima-nova,Helvetica Neue,Arial,sans-serif'" font-size="12.00">Transfer z to Charlie</text>
</g>
<!-- or1&#45;&gt;transC -->
<g id="edge4" class="edge">
<title>or1&#45;&gt;transC</title>
<path fill="none" stroke="black" d="M217.88,-146.15C225.61,-137.29 235.62,-125.8 244.5,-115.61"/>
<polygon fill="black" stroke="black" points="247.38,-117.63 251.32,-107.79 242.11,-113.03 247.38,-117.63"/>
</g>
<!-- transA -->
<g id="node3" class="node">
<title>transA</title>
<ellipse fill="none" stroke="transparent" cx="68.95" cy="-18" rx="68.89" ry="18"/>
<text text-anchor="middle" x="68.95" y="-14.9" font-family="'Lato,proxima-nova,Helvetica Neue,Arial,sans-serif'" font-size="12.00">Transfer x to Alice</text>
</g>
<!-- and1&#45;&gt;transA -->
<g id="edge2" class="edge">
<title>and1&#45;&gt;transA</title>
<path fill="none" stroke="black" d="M129.57,-74.83C119.46,-65.53 106,-53.13 94.33,-42.38"/>
<polygon fill="black" stroke="black" points="96.7,-39.81 86.97,-35.61 91.96,-44.95 96.7,-39.81"/>
</g>
<!-- transB -->
<g id="node4" class="node">
<title>transB</title>
<ellipse fill="none" stroke="transparent" cx="221.95" cy="-18" rx="65.74" ry="18"/>
<text text-anchor="middle" x="221.95" y="-14.9" font-family="'Lato,proxima-nova,Helvetica Neue,Arial,sans-serif'" font-size="12.00">Transfer y to Bob</text>
</g>
<!-- and1&#45;&gt;transB -->
<g id="edge3" class="edge">
<title>and1&#45;&gt;transB</title>
<path fill="none" stroke="black" d="M160.53,-74.83C170.84,-65.46 184.59,-52.96 196.48,-42.15"/>
<polygon fill="black" stroke="black" points="198.91,-44.67 203.96,-35.35 194.2,-39.49 198.91,-44.67"/>
</g>
</g>
</svg>
